<svg xmlns="http://www.w3.org/2000/svg" data-name="4" viewBox="0 0 3456.56 3120"><path fill="#ffcac0" d="M854.58 2486.79c-168.24-27.66-401.91-102.31-353.59-303 10.25-42.57 21.94-90.41 3.6-130.26-161.15-350.2-79.31-522.34 229.26-650.67 47.67-19.83 85.72-57.62 125.64-90.44 104.5-85.87 286.35-245.63 400.43-404 0 0 315.17-516.78 1165.15-378.55 0 0 530.23 175.27 656.09 673.68 23.76 94.12 26.52 192.35 9.33 287.92-13.88 77.14-37.71 172.77-75.26 218.45 0 0-118 146.9 22.85 305.24 0 0 167.43 201.24-.31 428.18a347.22 347.22 0 0 1-194.89 130.26c-160 40.11-507.24 71-1153.33-103.6a756 756 0 0 0-141.65-24.21c-93.56-6.88-248.55-7.29-438.29 33.81-84 18.23-170.33 21.11-255.03 7.19Z" class="colorffcac0 svgShape"/><path fill="#ffd6d4" d="M593.31 1367.46c102.76-19.48 285.28-99.22 523.4-387.34 0 0 134.89-211.45 268.33-304.78 27.78-19.43 52.7-42.71 73.16-69.74.42-.55.84-1.11 1.25-1.67 33.66-45.12 19.55-109.93-30.25-136.19-47.6-25.13-130.26-39-270.29 6.52a854.15 854.15 0 0 0-214.54 105.38C781.45 690 431.89 966.88 478.5 1286.12c7.99 54.78 60.42 91.65 114.81 81.34Z" class="colorffd6d4 svgShape"/><path fill="#99bbcb" d="M774.11 2777.17s-275.95-88.39-86-302.9c4.42-5 8.8-10 13-15.18 17-20.94 130.68-118.85 766.95-122.73 0 0 164.87-1.86 320 32.51 65.07 14.42 127.32 39.22 185.37 72 24.48 13.81 57.91 28.39 77.39 18.83 0 0 18.13-7 17-27.84-1.08-19.71 14.7-36.17 34.41-35.06 189.6 10.68 843.36 60.12 933.59 237.25 0 0 77.32 153.14-185.44 197.65 0 0-603 76.44-1065.17 27.71a1262.94 1262.94 0 0 1-376.81-100.21c-84-37-194.23-77.47-220.74-48.67 0 0-20.28 28.32 6.23 50.57 16.08 13.51 7.41 39.85-13.51 41.69-113.2 9.95-280.38 14.49-406.27-25.62Z" class="color99bbcb svgShape"/><ellipse cx="594.58" cy="2646.8" fill="#7090b3" rx="352.56" ry="102.03" class="color7090b3 svgShape"/><ellipse cx="2329.36" cy="2662.31" fill="#7090b3" rx="537.93" ry="102.03" class="color7090b3 svgShape"/><ellipse cx="1196.76" cy="2577.17" fill="#7090b3" rx="284.67" ry="53.99" class="color7090b3 svgShape"/><ellipse cx="2901.68" cy="2750.64" fill="#7090b3" rx="136.44" ry="36.36" class="color7090b3 svgShape"/><ellipse cx="1666.03" cy="2598.39" fill="#7090b3" rx="152.68" ry="63.32" class="color7090b3 svgShape"/><ellipse cx="1144.54" cy="2376.83" fill="#7090b3" rx="52.22" ry="21.65" class="color7090b3 svgShape"/><rect width="1624.04" height="1128.34" x="1393.39" y="383.31" fill="#ffffff" rx="95.25" class="colorfff svgShape"/><path fill="#acdaef" d="M2868.23 1421.75h-1317.3c-57.07 0-103.76-46.69-103.76-103.76V573.92c0-57.07 46.69-103.76 103.76-103.76h1317.3c57.07 0 103.76 46.69 97.58 103.76V1318c6.19 57.06-40.51 103.75-97.58 103.75Z" class="coloracdaef svgShape"/><rect width="143.43" height="166.74" x="1515.78" y="1110" fill="#013169" rx="14.84" class="color013169 svgShape"/><rect width="143.43" height="166.74" x="1668.31" y="1110" fill="#63a2be" rx="14.84" class="color63a2be svgShape"/><rect width="143.43" height="166.74" x="1820.38" y="1110" fill="#ff613e" rx="14.84" class="colorff613e svgShape"/><rect width="143.43" height="166.74" x="1974.87" y="1110" fill="#a01605" rx="14.84" class="colora01605 svgShape"/><rect width="190.82" height="100.33" x="1515.78" y="927.89" fill="#d2f3ff" rx="14.84" class="colord2f3ff svgShape"/><rect width="190.82" height="100.33" x="2087.63" y="504.96" fill="#d2f3ff" rx="14.84" class="colord2f3ff svgShape"/><path fill="#ff613e" d="M1755.65 324.45v247.61l199.57 146.58a246.5 246.5 0 0 0 48-146.58c.04-136.75-110.82-247.61-247.57-247.61Z" class="colorff613e svgShape"/><path fill="#63a2be" d="M1755.65 324.45c-136.75 0-247.65 110.86-247.65 247.61a246.53 246.53 0 0 0 29.71 117.71l217.9-117.71Z" class="color63a2be svgShape"/><path fill="#013169" d="M1537.75 689.77a247.66 247.66 0 0 0 417.47 28.87l-199.57-146.58Z" class="color013169 svgShape"/><path fill="#d2f3ff" d="M1749.98 928.29h349.3v38.38h-349.3zM2089.16 644.57h349.3v38.38h-349.3zM2089.16 699.18h349.3v38.38h-349.3zM1749.98 995.95h349.3v38.38h-349.3z" class="colord2f3ff svgShape"/><path fill="#004c81" d="M2736.59 245.06s-174.86-23.12-146.47 198.64c0 0-66.81 47.41-26 95.63 0 0-56.88 14.84-47 69.24 0 0 8.65 17.31 21 22.26 0 0-34.9 2.79-38.09 20-.27 1.47-5.43 24.22 43 65.57l385.77 130.19s121.2-36.48 128.64-113.14c0 0 8.66-73.66-47-107.93 0 0 22.26-44.23 1.24-80 0 0-16.08-21-47-24.68 0 0 14.84-56.88-4.94-75.42 0 0-13.6-16.54-47-14.46 0 0 12.28-36.06 5-66.16a40.89 40.89 0 0 0-4.34-10.76 74.38 74.38 0 0 0-57.55-37.21s-20.96-68.06-119.26-71.77Z" class="color004c81 svgShape"/><path fill="#faa8a8" d="M2614.87 409.06v85.31s-1.3 80.82 51.86 94.42c0 0 84.9 18.14 110.46-16.48 0 0 14-19 14.83-59.35 0 0 30 10 48.22-5.75a28.55 28.55 0 0 0 9.69-20.69c.59-16.11-4.44-47.32-53.78-41.15 0 0-32.15 11.54-67.6-17.31 0 0-67.59-12.37-63.47-88.2 0 0-15.53 77.4-50.21 69.2Z" class="colorfaa8a8 svgShape"/><ellipse cx="2738.93" cy="459.78" fill="#013169" rx="11.54" ry="16.08" class="color013169 svgShape"/><path fill="none" stroke="#000" stroke-miterlimit="10" stroke-width="3" d="m2683.22 459.78-6.6 44.93h17.31" class="colorStroke000 svgStroke"/><path fill="#013169" d="M2720.11 428.14s23.51-19.59 50.07 0v4.36s-28.74-16.55-50.07 0Z" class="color013169 svgShape"/><path fill="#004c81" d="M2620.26 426.56s23.52-19.59 50.08 0v4.35s-28.74-16.54-50.08 0Z" class="color004c81 svgShape"/><ellipse cx="2645.3" cy="458.76" fill="none" stroke="#000" stroke-miterlimit="10" stroke-width="3" rx="30.74" ry="23.49" class="colorStroke000 svgStroke"/><ellipse cx="2745.14" cy="459.78" fill="none" stroke="#000" stroke-miterlimit="10" stroke-width="3" rx="30.74" ry="23.49" class="colorStroke000 svgStroke"/><path fill="none" stroke="#000" stroke-miterlimit="10" stroke-width="3" d="m2775.88 459.78 20.27-14.41" class="colorStroke000 svgStroke"/><path d="M2681.77 531.42a86.9 86.9 0 0 0 36.72-5.31 6 6 0 0 1 7.9 7.22c-2 7.27-5.82 16.25-12.62 21.89a18.41 18.41 0 0 1-17.15 3.29 36 36 0 0 1-21.08-17.44 6.53 6.53 0 0 1 6.23-9.65Z" fill="#000000" class="color000 svgShape"/><path fill="#ffffff" d="M2683.9 531.54s4 13.24 15.3 12.06 15.11-4.89 17-16.65c-.05.05-16.3 7.92-32.3 4.59Z" class="colorfff svgShape"/><path fill="#faa8a8" stroke="#faa8a8" stroke-miterlimit="10" d="M2661.78 587.28v67.45s29.27 35.45 58.33 34.62c0 0 34.82-2.47 60.37-33l2.28-94.7s-2.28 28.92-61.63 31.73c0 .03-46.41.62-59.35-6.1Z" class="colorfaa8a8 svgShape colorStrokefaa8a8 svgStroke"/><path fill="#ef1c00" stroke="#ef1c00" stroke-miterlimit="10" d="M2554.22 1114.27s-94 179.28-38.33 387h374.64s38.37-227.5-40.16-366c0 .02-210.84 45.73-296.15-21Z" class="coloref1c00 svgShape colorStrokeef1c00 svgStroke"/><path fill="#bb1c00" d="M2802.71 1142.88s-63.42 37-159.91 50.49-88.58 307.9-88.58 307.9l-27.06 3.49 60.54-372.26s66.04 31.71 215.01 10.38Z" class="colorbb1c00 svgShape"/><path fill="#faa8a8" d="M2153 789.09s-65.53-93.35-110-79.75a24.79 24.79 0 0 0-9.9 11.13s-29 3.09-34 37.09c0 0-9.64 48.24 21.68 76.61a62.82 62.82 0 0 0 16.42 10.57c11.61 5.26 40.58 17.46 68.8 22.26 0 0 13.61-63.69 47-77.91Z" class="colorfaa8a8 svgShape"/><path fill="#fa7e83" stroke="#fa7e83" stroke-miterlimit="10" d="M2070.78 845.48s-21.26 4.94-47.89-12.74c0 0 29.7 20.6 52.72 26.72S2106 867 2106 867l2.3-13.61s-19.17.61-37.52-7.91Z" class="colorfa7e83 svgShape colorStrokefa7e83 svgStroke"/><path fill="#fa7e83" d="M2033.06 720.47s14.32 2.54 18.85 4.07c0 0 4.1-7.65 12.37-9.65 0 0-22.13-7.31-31.22 5.58Z" class="colorfa7e83 svgShape"/><path d="m2093.76 878.71-12.27 3.57-103.02-400.03 115.29 396.46z" fill="#000000" class="color000 svgShape"/><path fill="#faa8a8" d="M2032.24 837.83c10 4.18 23 8.7 32.94 8.74a14.23 14.23 0 0 0 14.41-13.68c.09-4.4-1.86-9.38-8.81-13.51 0 0 15.45.62 17.92-12.36 0 0 3.09-14.84-9.27-22.26 0 0 14.22-1.23 14.22-11.74 0 0 1.24-8.66-13.6-13 0 0 10.56.61 13.62-7.42 0 0 4.92-20.4-60.61-32.15 0 0-44.59 4.21-34.65 67 0 0-.66 10.8 8.54 27.69a51.32 51.32 0 0 0 25.29 22.69Z" class="colorfaa8a8 svgShape"/><path fill="#faa8a8" d="M2082.76 718.3s-40-14.93-41.66 38.64c0 0 0 14.84 11.54 14 0 0 11.58 4 22.69-27.27 0 0 18.7 4.57 32.21-6.33Z" class="colorfaa8a8 svgShape"/><path fill="#a0d6e9" stroke="#a0d6e9" stroke-miterlimit="10" d="M2661.78 654.73s33.83 41.21 58.33 34.62c0 0 36.88-1.23 60.37-33l49.46 75.84 20.43 403.07s-210.84 43.28-296.15-21l22.25-305.4L2593.78 708Z" class="colora0d6e9 svgShape colorStrokea0d6e9 svgStroke"/><path fill="#013169" d="M2153 789.09s116.43 67.53 190.83 65.37a54.28 54.28 0 0 0 44.31-25.77c20.57-33.06 69.19-104.43 130.29-148.87 0 0 49.32-33.48 143.35-25.09 0 0-91.68 117.09-59.44 591.86h-148.27s49.45-236.27 39.56-327.1c0 0-27.2 57.54-98.91 76.09 0 0-132.3 40.8-288.71-128.59-.01.01 3.09-50.7 46.99-77.9Z" class="color013169 svgShape"/><rect width="231.27" height="322.13" x="2649.49" y="767.23" fill="#a0b9e9" stroke="#a0d6e9" stroke-miterlimit="10" rx="14.84" class="colora0b9e9 svgShape colorStrokea0d6e9 svgStroke"/><rect width="231.26" height="322.13" x="2658.07" y="756.44" fill="#63a2be" rx="14.84" class="color63a2be svgShape"/><path fill="#013169" d="M2780.48 656.38s160.74-7 202.78 190.19c0 0 39.56 221.13-42 237.62 0 0-8.66 119.14 1.24 162.4h-159.7s30.54-116.11 23.12-188.44c0 0-49.56-15.73-69.29-40.32 0 0 45.95-24.73 55.64-98.3a92.35 92.35 0 0 1 15.46 5.57s10.41-177.18-27.25-268.72Z" class="color013169 svgShape"/><path fill="#faa8a8" d="M2792.23 919.53s-6.18 66.77-55.64 98.3c0 0-94.59-45.75-95.2-76 0 0 0-11.75 8-12.36 0 0-15.45-11.75-8-29.06 0 0 3.09-7.42 14.83-3.71 0 0-14-10.79-5.28-24.81a8.41 8.41 0 0 1 9-3.86c4.15 1 10.48 4.18 19.75 12.6 0 0-34-24.11-22.88-43.9 0 0 2.57-5.14 17.34-3.53a66.35 66.35 0 0 1 33.28 13.7 131.64 131.64 0 0 1 21.09 20.75s11.13 13 13 10.5c0 0 7.42 0-1.86-37.71 0 0-2.92-9.74 5.6-16 7.66-5.67 18.58-3.54 24.08 4.24 8.52 11.92 20.54 38 22.89 90.85Z" class="colorfaa8a8 svgShape"/><ellipse cx="2650.25" cy="459.78" fill="#013169" rx="11.54" ry="16.08" class="color013169 svgShape"/><path fill="none" stroke="#000" stroke-miterlimit="10" stroke-width="3" d="m2676.04 458.76 38.36 1.02" class="colorStroke000 svgStroke"/><path fill="#fa7e83" stroke="#fa7e83" stroke-miterlimit="10" d="M2614.56 445.37s-20.78-1.13-24.15 18.63a22.67 22.67 0 0 0-.19 5.76c.68 7.56 4.36 26.55 24.34 27.54Z" class="colorfa7e83 svgShape colorStrokefa7e83 svgStroke"/><path fill="#011c5f" d="M2886.56 833.66s-8.67 89.78 2.78 113.82c0 0-24.66-9.87-44.36-12.06.02 0 36.11 7.66 41.58-101.76ZM2792.23 919.53s-7.56 66.92-55.64 98.3c0 0 74.37 70.69 204.63 66.36 0 0 27.36-5.46 41.06-44.29 0 0-74.63 27.61-154.37-9.85a63.9 63.9 0 0 1-35.91-48.41c-2.23-14.74-2.89-34.91.23-62.11ZM2106 867s130.6 162.48 288.71 128.59c0 0-145.65 8.48-229.31-102.1a78 78 0 0 1-9-79.14 105.53 105.53 0 0 1 10.24-17.74l-13.64-7.52s-39.72 21.5-47 77.91ZM2493.63 919.49l17.62-37.21s2.61 76.62-31.52 220.8c0 0 22.54-151.38 13.9-183.59ZM2661.78 654.73s-92.05-11.43-149.37 29.59c0 0 61.64-26 137.84-8.91 0 0 5.23-13.96 11.53-20.68ZM2780.48 656.38l6.79 19s118.71 2.57 190.88 150.28c0-.01-34.94-161.66-197.67-169.28Z" class="color011c5f svgShape"/><path fill="#a0b9e9" stroke="#a0d6e9" stroke-miterlimit="10" d="M2661.78 654.73s27.19 32.2 58.33 34.62c0 0 23.87-2 45-17.31 0 0-13.15 24.12-86.82 32.87s-81.53 431.31-81.53 431.31-16.41-337.63 65.02-481.49Z" class="colora0b9e9 svgShape colorStrokea0d6e9 svgStroke"/><path fill="#00275c" d="M2614.56 497.3s.07 75.92 47.22 90v67.45s-87.05-1.18-114.78 14.06c0 0 2.19-32.2 26.26-43.27 0 0-26.26-14-14.59-45s36.74-25.41 36.74-25.41-20.88-26.31 6.93-61.54a35.93 35.93 0 0 0 12.22 3.71ZM2792 513a171.31 171.31 0 0 1-9.26 48.72l-2.28 94.7s64.41-5.85 128.54 51.58c0 0 31.11-34.49 0-75.52 0 0 28-4.09 28-51.28s-47.58-35.72-47.58-35.72 26.64-78.49-52.75-92.9c0 0 25.17 24.72 3.65 54.64-.08-.01-10.43 14.38-48.32 5.78Z" class="color00275c svgShape"/><path fill="#fa7e83" stroke="#fa7e83" stroke-miterlimit="10" d="M2661.78 587.28s63.17 12.93 94.19 0c0 0-37.76 36.64-94.19 31.54ZM2802.31 459.78v37.52s25.16-.06 28.45-14c0-.03 6.56-28.66-28.45-23.52ZM2653.92 375.38s16.87 35.53 66.19 52.76c0 0-58.76-20.77-55-88.28ZM2745.28 824.35s18 45.42 10.69 65.12-27.42-21.86-27.42-21.86 8 12.28 13 10.5-.41-31.54-.41-31.54-6.39-16.76 4.14-22.22ZM2641.39 941.79s26.08 45.35 113.47 61.07c0 0-14 13.68-18.27 15 0-.03-95.83-45.08-95.2-76.07ZM2052.64 771s19.52-4.54 22.69-27.27c0 0 12.48 1.92 18.61 0 0-.04-13 20.33-41.3 27.27ZM2079.43 784.76s11.31-.72 14.22-11.74c0 0-1 24.53 7.27 33.83a61.06 61.06 0 0 1-24.49 12.28s18-5.34 11.68-23.06c-.84-2.35-2.28-4.95-8.68-11.31Z" class="colorfa7e83 svgShape colorStrokefa7e83 svgStroke"/><path fill="none" stroke="#fa7e83" stroke-miterlimit="10" d="M2052.64 771s-23.1 2.91-9.29-31 33.08-25.2 33.08-25.2" class="colorStrokefa7e83 svgStroke"/><path fill="none" stroke="#fa7e83" stroke-miterlimit="10" d="M2079.43 784.76s-25.91-.34-51.81-24.41M2070.78 819.38s-28.93-5.45-49.72-23.31" class="colorStrokefa7e83 svgStroke"/><path fill="#950a00" d="m2481.579 1543.734 12.717-3.538 309.94 1113.831-12.718 3.539z" class="color950a00 svgShape"/><path fill="#560a00" d="m2456.466 1550.725 25.106-6.986 309.94 1113.831-25.106 6.986z" class="color560a00 svgShape"/><path fill="#950a00" d="m2024.36 1504.76-168.63 1137.18-26.52-3.93-.96 6.45 38.84 5.76 169.59-1143.64-12.32-1.82z" class="color950a00 svgShape"/><path fill="#560a00" d="m1829.137 2637.84 168.535-1137.2 26.53 3.932-168.535 1137.199z" class="color560a00 svgShape"/><path fill="#ffa9b5" d="m1989.92 1466.086 37.823-10.525 309.94 1113.831-37.824 10.525z" class="colorffa9b5 svgShape"/><path fill="#950a00" d="m2441.55 1560.41-38.96-4.81 23.33 2.88-141.66 1147.43 15.64 1.93 141.65-1147.43z" class="color950a00 svgShape"/><path fill="#560a00" d="m2260.99 2703.129 141.7-1147.434 23.333 2.882-141.7 1147.433z" class="color560a00 svgShape"/><path fill="#000f3c" d="M2571.31 1104.59a25.33 25.33 0 0 0-8.63-1.51h-544.16a25.35 25.35 0 0 0-25 21.28L1860 1945.17a25.33 25.33 0 0 0 25 29.41h544.2a25.35 25.35 0 0 0 25-21.28l133.48-820.8a25.36 25.36 0 0 0-16.37-27.91Z" class="color000f3c svgShape"/><path fill="#e9faff" d="M2416.37 1934.72h-515.19l122.61-753.94h515.19l-122.61 753.94z" class="colore9faff svgShape"/><path fill="#013169" d="m2314.64 1210.27-94.48 1.79a12.31 12.31 0 0 1-12.09-15.66l16.18-57.26a12.31 12.31 0 0 1 11.62-9l94.48-1.79a12.31 12.31 0 0 1 12.08 15.66l-16.18 57.26a12.3 12.3 0 0 1-11.61 9Z" class="color013169 svgShape"/><path fill="#376db3" d="M796.51 2716.12h-423a10.48 10.48 0 0 1-8.72-16.3l99.74-149.36 449.31-27.28Z" class="color376db3 svgShape"/><path fill="#fd958c" d="m454.32 2658.67 81.52-141.11h-44.43a8.26 8.26 0 0 0-7.07 4l-107.25 176.4a8.27 8.27 0 0 0 7.07 12.57h423.28a8.27 8.27 0 0 0 7.07-4l2.47-4.07 18.58-30.55H461.39c-6.45-.01-10.39-7.44-7.07-13.24Z" class="colorfd958c svgShape"/><path fill="#ffa9a0" d="M914.69 2517.56H535.84l-81.52 141.11c-3.35 5.8.62 13.23 7.07 13.23h374.17l86.2-141.78a8.27 8.27 0 0 0-7.07-12.56Z" class="colorffa9a0 svgShape"/><circle cx="461.02" cy="2662.31" r="28.28" fill="#560a00" transform="rotate(-76.72 460.947 2662.243)" class="color560a00 svgShape"/><circle cx="559.47" cy="2662.31" r="28.28" fill="#560a00" transform="rotate(-45 559.462 2662.303)" class="color560a00 svgShape"/><circle cx="661.88" cy="2662.31" r="28.28" fill="#560a00" transform="rotate(-76.72 661.807 2662.244)" class="color560a00 svgShape"/><circle cx="762.59" cy="2662.31" r="28.28" fill="#560a00" transform="rotate(-76.72 762.505 2662.25)" class="color560a00 svgShape"/><circle cx="525.79" cy="2558.15" r="28.28" fill="#560a00" transform="rotate(-76.72 525.723 2558.095)" class="color560a00 svgShape"/><circle cx="624.24" cy="2558.15" r="28.28" fill="#560a00" transform="rotate(-45 624.24 2558.151)" class="color560a00 svgShape"/><circle cx="726.66" cy="2558.15" r="28.28" fill="#560a00" transform="rotate(-76.72 726.584 2558.096)" class="color560a00 svgShape"/><circle cx="827.36" cy="2558.15" r="28.28" fill="#560a00" transform="rotate(-76.72 827.281 2558.103)" class="color560a00 svgShape"/><path fill="#e2f2ff" d="M650.55 2476c-5.07-.68-10.16-1.3-15.26-1.8-28.4-2.75-140.25-18.05-151.23-88.85a72.63 72.63 0 0 1 3.84-36.81 73.59 73.59 0 0 0-20.73 63.11c11 70.8 122.83 86.1 151.24 88.85 5.09.49 10.18 1.11 15.25 1.79 141.74 19 204.58-43.34 232.06-95-33.72 43.83-97.05 84.46-215.17 68.71Z" class="colore2f2ff svgShape"/><path fill="#ffffff" d="M747.34 2196.84c-58.1-5-91.3 12.7-110.27 33.75-20.37 22.61-24.31 49.11-25 55.62-.13 1.2-.28 2.38-.51 3.55-.18.93-.39 1.82-.6 2.7-14.57 10.2-32.21 7.9-32.21 7.9a116.37 116.37 0 0 0-36.45 1.38 74.59 74.59 0 0 0-54.42 46.75 72.63 72.63 0 0 0-3.84 36.81c11 70.8 122.83 86.1 151.23 88.85 5.1.5 10.19 1.12 15.26 1.8 118.12 15.8 181.44-24.83 215.17-68.71 17.66-33.22 20.71-62 20.71-62 9.29-135.42-139.07-148.4-139.07-148.4Z" class="colorfff svgShape"/><ellipse cx="530.75" cy="2394.24" fill="#d2f3ff" rx="19.16" ry="41.16" transform="rotate(-86.68 530.8 2394.279)" class="colord2f3ff svgShape"/><ellipse cx="633.6" cy="2463" fill="#d2f3ff" rx="19.16" ry="41.16" transform="rotate(-86.68 633.659 2463.036)" class="colord2f3ff svgShape"/><ellipse cx="762.59" cy="2435.31" fill="#d2f3ff" rx="19.16" ry="41.16" transform="rotate(-86.68 762.643 2435.344)" class="colord2f3ff svgShape"/><ellipse cx="827.36" cy="2362.49" fill="#d2f3ff" rx="19.16" ry="41.16" transform="rotate(-86.68 827.42 2362.518)" class="colord2f3ff svgShape"/><ellipse cx="803.69" cy="2277.33" fill="#d2f3ff" rx="19.16" ry="41.16" transform="rotate(-86.68 803.746 2277.36)" class="colord2f3ff svgShape"/><ellipse cx="698.37" cy="2239.91" fill="#d2f3ff" rx="19.16" ry="41.16" transform="rotate(-86.68 698.425 2239.937)" class="colord2f3ff svgShape"/><path fill="#841900" stroke="#841900" stroke-miterlimit="10" d="M431.24 2492.28h-10.13a14.9 14.9 0 0 1 11.63 14.48v67.79a14.89 14.89 0 0 1-14.84 14.84h-57.65a14.67 14.67 0 0 0 3.2.36h67.79a14.89 14.89 0 0 0 14.84-14.84v-67.79a14.89 14.89 0 0 0-14.84-14.84Z" class="color841900 svgShape colorStroke841900 svgStroke"/><path fill="#590200" stroke="#590200" stroke-miterlimit="10" d="M432.74 2574.55v-67.79a14.9 14.9 0 0 0-11.63-14.48h-57.66a14.88 14.88 0 0 0-14.83 14.84v67.79a14.9 14.9 0 0 0 11.63 14.48h57.65a14.89 14.89 0 0 0 14.84-14.84Z" class="color590200 svgShape colorStroke590200 svgStroke"/><path fill="#ff9050" d="M431.24 2462.61H417.9a14.84 14.84 0 1 1 0 29.67h13.34a14.84 14.84 0 1 0 0-29.67Z" class="colorff9050 svgShape"/><path fill="#ff613e" d="M432.74 2477.45a14.89 14.89 0 0 0-14.84-14.84h-54.45a14.84 14.84 0 0 0 0 29.67h54.45a14.88 14.88 0 0 0 14.84-14.83Z" class="colorff613e svgShape"/><path fill="#005ca8" d="M899.12 2580.13h-17.41a14.88 14.88 0 0 1 14.83 14.87v67.79a14.88 14.88 0 0 1-14.83 14.84h17.41a14.88 14.88 0 0 0 14.88-14.87V2595a14.88 14.88 0 0 0-14.88-14.87Z" class="color005ca8 svgShape"/><rect width="80.05" height="97.47" x="816.49" y="2580.13" fill="#013169" rx="14.84" class="color013169 svgShape"/><path fill="#b3ccff" d="M899.12 2550.46h-17.41a14.84 14.84 0 0 1 0 29.67h17.41a14.84 14.84 0 0 0 0-29.67Z" class="colorb3ccff svgShape"/><path fill="#63a2be" d="M896.54 2565.29a14.87 14.87 0 0 0-14.83-14.83h-50.38a14.84 14.84 0 1 0 0 29.67h50.38a14.87 14.87 0 0 0 14.83-14.84Z" class="color63a2be svgShape"/><path fill="#005ca8" d="M361 2546.24h-20a14.88 14.88 0 0 1 14.84 14.83v67.79A14.89 14.89 0 0 1 341 2643.7h20a14.89 14.89 0 0 0 14.84-14.84v-67.79a14.88 14.88 0 0 0-14.84-14.83Z" class="color005ca8 svgShape"/><rect width="77.46" height="97.47" x="278.41" y="2546.24" fill="#013169" rx="14.84" class="color013169 svgShape"/><path fill="#b3ccff" d="M361 2516.56h-17.38a14.88 14.88 0 0 1 14.83 14.84 14.88 14.88 0 0 1-14.83 14.84H361a14.89 14.89 0 0 0 14.84-14.84 14.89 14.89 0 0 0-14.84-14.84Z" class="colorb3ccff svgShape"/><path fill="#63a2be" d="M358.45 2531.4a14.88 14.88 0 0 0-14.83-14.84h-50.37a14.89 14.89 0 0 0-14.84 14.84 14.89 14.89 0 0 0 14.84 14.84h50.37a14.88 14.88 0 0 0 14.83-14.84Z" class="color63a2be svgShape"/><path fill="#005ca8" d="M1172.81 2293.31h-15.16a14.88 14.88 0 0 1 14.83 14.84v56.42a14.88 14.88 0 0 1-14.83 14.84h15.16a14.89 14.89 0 0 0 14.84-14.84v-56.42a14.89 14.89 0 0 0-14.84-14.84Z" class="color005ca8 svgShape"/><rect width="70.93" height="86.09" x="1101.56" y="2293.31" fill="#013169" rx="14.84" class="color013169 svgShape"/><path fill="#b3ccff" d="M1174.54 2267.1H1159a13.14 13.14 0 0 1 12.7 13.09 13.14 13.14 0 0 1-13.11 13.1h-44.3 60.29a13.11 13.11 0 1 0 0-26.21Z" class="colorb3ccff svgShape"/><path fill="#63a2be" d="M1171.66 2280.19a13.14 13.14 0 0 0-12.7-13.09h-44.3a13.1 13.1 0 0 0-.41 26.19h44.3a13.14 13.14 0 0 0 13.11-13.1Z" class="color63a2be svgShape"/><path fill="#005ca8" d="M1796.29 2067.24h-13.17a14.89 14.89 0 0 1 14.84 14.84v528.44a14.88 14.88 0 0 1-14.84 14.83h13.17a14.88 14.88 0 0 0 14.84-14.83v-528.44a14.89 14.89 0 0 0-14.84-14.84Z" class="color005ca8 svgShape"/><rect width="95.64" height="558.11" x="1702.32" y="2067.24" fill="#013169" rx="14.84" class="color013169 svgShape"/><path fill="#013169" d="M1796.29 2037.57h-10.85a14.88 14.88 0 0 1 14.83 14.84 14.87 14.87 0 0 1-14.83 14.83h10.85a14.88 14.88 0 0 0 14.84-14.83 14.89 14.89 0 0 0-14.84-14.84Z" class="color013169 svgShape"/><path fill="#000f3c" d="M1800.27 2052.41a14.88 14.88 0 0 0-14.83-14.84h-68.28a14.89 14.89 0 0 0-14.84 14.84 14.88 14.88 0 0 0 14.84 14.83h68.28a14.87 14.87 0 0 0 14.83-14.83Z" class="color000f3c svgShape"/><path fill="#005ca8" d="M1796.29 1929.31h-79.13a14.88 14.88 0 0 0-14.83 14.59 14.4 14.4 0 0 1 3-.3h79.13a14.89 14.89 0 0 1 14.84 14.84v79.38a14.9 14.9 0 0 0 11.89-14.54v-79.13a14.89 14.89 0 0 0-14.9-14.84Z" class="color005ca8 svgShape"/><path fill="#013169" d="M1799.25 1958.44a14.89 14.89 0 0 0-14.84-14.84h-79.13a14.4 14.4 0 0 0-3 .3v79.38a14.89 14.89 0 0 0 14.84 14.84h79.13a15.14 15.14 0 0 0 3-.3v-.25Z" class="color013169 svgShape"/><path fill="#001735" d="m1587.663 2494.583-29.794-245.489 22.912-2.78 29.794 245.488z" class="color001735 svgShape"/><path fill="#6e95b9" d="m1578.46 2197.22-26.64 3.23-5.31 49.66 48.31-5.86-16.36-47.03z" class="color6e95b9 svgShape"/><path fill="#042656" d="m1578.46 2197.21-26.64 3.24c-2.4.31-32.35-28.41-1.3-69.63 3.22.79 47.08 16.35 27.94 66.39Z" class="color042656 svgShape"/><path fill="#590200" stroke="#590200" stroke-miterlimit="10" d="m1641.83 2194.65-38.64 331.53-22.9-2.83 38.63-331.53 22.91 2.83z" class="color590200 svgShape colorStroke590200 svgStroke"/><path fill="#a01605" d="m1653.15 2129.54-26.64-3.28-18.77 63.85 48.29 5.97-2.88-66.54z" class="colora01605 svgShape"/><path fill="#c82f1c" d="m1653.15 2129.54-26.64-3.29c-2.41-.26-23.46-46.55 17.87-92 2.9 1.95 41.02 34.84 8.77 95.29Z" class="colorc82f1c svgShape"/><path fill="#378dc7" d="M1676.77 2293.31h-159.69a8.42 8.42 0 0 0-8.37 9.27l.46 4.54h145.18a8.42 8.42 0 0 1 8.36 9.47l-29.13 233.1h13.26a8.42 8.42 0 0 0 8.36-7.38l29.93-239.53a8.42 8.42 0 0 0-8.36-9.47Z" class="color378dc7 svgShape"/><path fill="#006e9a" d="M1654.35 2307.12h-145.18l23.79 235a8.43 8.43 0 0 0 8.38 7.57h92.24l29.13-233.1a8.42 8.42 0 0 0-8.36-9.47Z" class="color006e9a svgShape"/><rect width="127.31" height="27.48" x="1530.02" y="2549.69" fill="#021341" rx="13.74" class="color021341 svgShape"/><path fill="#841900" stroke="#841900" stroke-miterlimit="10" d="M1720.82 2535.07h-15.32a14.89 14.89 0 0 1 14.84 14.84v79a14.89 14.89 0 0 1-14.84 14.84h15.32a14.88 14.88 0 0 0 14.83-14.84v-79a14.88 14.88 0 0 0-14.83-14.84Z" class="color841900 svgShape colorStroke841900 svgStroke"/><rect width="93.31" height="108.63" x="1627.03" y="2535.07" fill="#590200" stroke="#590200" stroke-miterlimit="10" rx="14.84" class="color590200 svgShape colorStroke590200 svgStroke"/><path fill="#ff9050" d="M1722.55 2502h-14.2a13.15 13.15 0 0 1 10.83 12.89v6.87a13.14 13.14 0 0 1-13.1 13.1h-68.22a13 13 0 0 0 2.27.21h82.42a13.13 13.13 0 0 0 13.1-13.1v-6.86a13.14 13.14 0 0 0-13.1-13.11Z" class="colorff9050 svgShape"/><path fill="#ff613e" d="M1719.18 2521.76v-6.87a13.15 13.15 0 0 0-10.83-12.89h-68.22a13.14 13.14 0 0 0-13.1 13.11v6.89a13.14 13.14 0 0 0 10.83 12.89h68.22a13.14 13.14 0 0 0 13.1-13.13Z" class="colorff613e svgShape"/><path fill="#fdab9e" d="M2902.67 1985.41s-77.09-121.3 61.39-184.86c0 0 106.33-49.51 116.22-71.37 0 0-14.2 86.14-18.71 119.56a174.61 174.61 0 0 1-6.87 30.4c-5.31 16.37-14.81 39.36-30.61 59.67a100.9 100.9 0 0 1-63.93 37.46Z" class="colorfdab9e svgShape"/><path fill="#fdab9e" d="M2932.05 2046.49s2-73.5 95.3-92.27a119.17 119.17 0 0 1 70.24 6.91c18.59 7.92 40.71 21.75 60.68 45.9a155 155 0 0 1 22.18 36.47c5.24 11.89 16.22 31.07 34.09 36.54 0 0-98.36 44.75-162.95 38.47-4.19-.41-8.4-.62-12.62-.77-21.13-.74-86.24-8.23-106.92-71.25Z" class="colorfdab9e svgShape"/><path fill="#ffa9a0" d="M2844.21 2075.77s36.34-63.91-33.83-128.25a119.17 119.17 0 0 0-63.69-30.43c-20-2.83-46.1-2.44-75.68 7.89a155.58 155.58 0 0 0-37.84 19.75c-10.64 7.46-30 18.2-48.08 13.64 0 0 61 89.17 119.56 117.2 3.8 1.83 7.51 3.82 11.2 5.88 18.47 10.29 78.06 37.55 128.36-5.68Z" class="colorffa9a0 svgShape"/><path fill="#fd9780" d="M2920.75 2302.24s-47.65-101.47 77.16-141.62a140.49 140.49 0 0 1 49.24-6.57c37.3 1.67 117.58 3.4 149.36-10.47 0 0-22.28 35.68-36.91 72.2-16.9 42.19-50.77 75.61-93.83 90.14-36.04 12.17-84.12 16.08-145.02-3.68ZM2839.49 2265.51s47.91-101.34-76.8-141.81a140.41 140.41 0 0 0-49.22-6.7c-37.3 1.58-117.59 3.1-149.33-10.85 0 0 22.19 35.74 36.72 72.29 16.79 42.23 50.58 75.74 93.6 90.38 36.01 12.26 84.08 16.28 145.03-3.31Z" class="colorfd9780 svgShape"/><path fill="#ae3149" d="M2900.84 2465c-18-115-24.88-220.36-20.54-313.08 3.48-74.23 14.13-140.6 31.67-197.26 30-96.73 69-131.14 70.66-132.55l2.42 2.81c-.39.34-40.07 35.38-69.67 131.28-27.34 88.59-51.42 248.67-10.87 508.22Z" class="colorae3149 svgShape"/><path fill="#ae3149" d="m2883.91 2117.77-3.56-1.05c.31-1 7.78-25.89 29.84-50.5 20.37-22.73 57.48-49.27 118.68-46.7l-.16 3.71c-59.64-2.55-95.82 23.27-115.65 45.34-21.56 24-29.06 48.95-29.15 49.2ZM2894.24 2375.44l-3.91-.64c.1-.43 9.75-43.85 39.46-86.13 17.49-24.89 38.41-44.54 62.17-58.41 29.74-17.36 64-25.64 101.84-24.63l-.23 3.72c-83.78-2.24-133.47 42.92-160.4 81.2-29.31 41.66-38.84 84.45-38.93 84.89ZM2883.18 2174.67h-3.71c0-.33 0-33.34-18.8-72.54-17.37-36.14-54.83-85.12-134.62-113.19l1.23-3.5c81.08 28.52 119.15 78.42 136.81 115.25 19.16 39.92 19.09 73.65 19.09 73.98ZM2891.07 2424.33c-.27-2.28-33.93-229.24-184.73-275.64l1.09-3.54c153 47.08 187.05 276.44 187.32 278.74Z" class="colorae3149 svgShape"/><path fill="#ffcebc" d="M2999.36 2750.64h-190.41l-32.15-305.17h249.76l-27.2 305.17z" class="colorffcebc svgShape"/><path fill="#560a00" d="M2776.8 2386.7h249.76v58.77H2776.8z" class="color560a00 svgShape"/><path fill="#360a00" d="M3026.56 2445.46s-169.54-10.23-208.93-58.76h-40.83v58.76Z" class="color360a00 svgShape"/><path fill="#ffbca7" d="M3026.56 2445.46s-150.08 15.16-172.94 89.61-16.3 215.57-16.3 215.57H2809l-32.15-305.18Z" class="colorffbca7 svgShape"/><path fill="#eee9ff" d="M701.77 962.73a82.76 82.76 0 0 1 22.1-56.68c-27.36 12.53-46.48 41.08-46.48 74.31 0 44.78 34.72 81.09 77.55 81.09a75.68 75.68 0 0 0 55.44-24.45 74.28 74.28 0 0 1-31.06 6.79c-42.83.03-77.55-36.27-77.55-81.06Z" class="coloreee9ff svgShape"/><path fill="#ffffff" d="M754.94 899.27a74.51 74.51 0 0 0-31.07 6.78 82.76 82.76 0 0 0-22.1 56.68c0 44.79 34.72 81.09 77.55 81.09a74.28 74.28 0 0 0 31.06-6.79 82.74 82.74 0 0 0 22.11-56.67c0-44.79-34.72-81.09-77.55-81.09Z" class="colorfff svgShape"/><path fill="#000f3c" d="M749.99 264.98h7.42v563.09h-7.42z" class="color000f3c svgShape"/><path fill="#7ec4ef" d="M779.32 864.07a119.67 119.67 0 0 0-24.38-2.5c-68.69 0-124.37 58.23-124.37 130h48.75c0-63.05 42.98-115.65 100-127.5Z" class="color7ec4ef svgShape"/><path fill="#acdaef" d="M779.32 864.07c-57 11.85-100 64.45-100 127.55h200c-.01-63.1-42.99-115.7-100-127.55Z" class="coloracdaef svgShape"/><rect width="71.71" height="32.19" x="719.08" y="829.38" fill="#000f3c" rx="14.84" class="color000f3c svgShape"/><path fill="#f3aaa5" stroke="#f3aaa5" stroke-miterlimit="10" d="M1316.68 1004.37v157.09a71.6 71.6 0 0 1-20.61 50.77c-10.89 10.87-27.43 20.43-52.46 23.21 0 0-102.63 9.89-108.81-63.06 0 0-55.64-4.35-50.69-52.25 0 0 6.18-36.77 47-14.51v14.51h18.55v-50.37s59.35 0 84.07-74.18c-.02 0 36.1 10.16 82.95 8.79Z" class="colorf3aaa5 svgShape colorStrokef3aaa5 svgStroke"/><path fill="#ef1c00" stroke="#ef1c00" stroke-miterlimit="10" d="M1149.64 1069.76s58.11 1.24 84.07-74.18c0 0 2.48-17.31 27.21-8.66 0 0 56.87 24.73 82.84-27.2 0 0 32.14-71.71-73-98.92 0 0-160.74-32.14-196.59 63.06 0 0-38.15 36.92-47.61 76.46-6.51 27.24 10.08 54.74 37.06 62.24 17.66 4.9 44.92 8.84 86.02 7.2Z" class="coloref1c00 svgShape colorStrokeef1c00 svgStroke"/><path fill="#551209" d="M1162.31 913.85c-4.72-6.27-15.63-6-24.35.55a28.21 28.21 0 0 0-2.71 2.35c8.09-4.58 17.16-4.17 21.36 1.4s2.1 14.4-4.53 20.92a28.49 28.49 0 0 0 3-2c8.72-6.53 11.92-16.95 7.23-23.22Z" class="color551209 svgShape"/><path fill="#d01c00" stroke="#ef1c00" stroke-miterlimit="10" d="M1130.72 937.67c-4.2-5.57-2.1-14.41 4.53-20.92a28.94 28.94 0 0 0-3 2c-8.72 6.58-12 17-7.24 23.27s15.64 6 24.36-.56a26.8 26.8 0 0 0 2.71-2.34c-8.08 4.53-17.16 4.12-21.36-1.45Z" class="colord01c00 svgShape colorStrokeef1c00 svgStroke"/><path fill="#551209" d="M1156.61 918.15c-4.2-5.57-13.27-6-21.36-1.4-6.63 6.51-8.73 15.35-4.53 20.92s13.27 6 21.36 1.4c6.63-6.52 8.73-15.35 4.53-20.92Z" class="color551209 svgShape"/><path fill="#551209" stroke="#551209" stroke-miterlimit="10" d="M1233.71 995.58s43.54 11.4 83 8.79c0 0 71.59-8.69 76.53-41.51 0 0-7.42 5.93-15.66 5.93 0 0 42.65-44.83-36-62 0 0 25.41 41.59-15.89 75.27 0 0-23.16 20.5-64.78 4.84.01.02-21.01-11.52-27.2 8.68ZM1057.65 1060.47s38 13.82 92 9.29v50.37h-18.55v-14.51s-39.56-22.91-47 14.51c0 0-9.89 45.66 50.69 52.25 0 0 .09 13.15 6 22.76 0 0-51.33 5.13-74.49-37.66a74.29 74.29 0 0 1-8.67-35.41Z" class="color551209 svgShape colorStroke551209 svgStroke"/><path fill="#551209" stroke="#551209" stroke-miterlimit="10" d="M1333.93 1001.24s5.14 89.54-17.25 106.85v-103.72Z" class="color551209 svgShape colorStroke551209 svgStroke"/><ellipse cx="1210.88" cy="1099.62" rx="10.64" ry="15.43" fill="#000000" class="color000 svgShape"/><ellipse cx="1295.98" cy="1099.62" rx="10.64" ry="15.43" fill="#000000" class="color000 svgShape"/><path fill="#551209" stroke="#551209" stroke-miterlimit="10" d="M1170.82 1054.39s31.64-10.65 58.84 0v14.4s-41.84-7.52-58.84 2.5ZM1275.44 1054.39s27-10.65 50.12 0v14.4s-35.64-7.52-50.12 2.5Z" class="color551209 svgShape colorStroke551209 svgStroke"/><path stroke="#000" stroke-miterlimit="10" stroke-width="3" d="M1214.44 1162.39a61.39 61.39 0 0 0 33.78 12.92c5.79.4 7.09 9.12 1.88 12.92a30 30 0 0 1-15.36 6 24.56 24.56 0 0 1-20-7.71 34.35 34.35 0 0 1-8.71-17.08c-1.03-5.35 4.56-10.04 8.41-7.05Z" class="colorStroke000 svgStroke"/><path fill="#ffffff" d="M1220.68 1166.67s-3.43 7.82 7.15 13.94 17-2.49 18.27-5.48c0 0-15.83-3.3-25.42-8.46Z" class="colorfff svgShape"/><path fill="none" stroke="#000" stroke-miterlimit="10" stroke-width="3" d="m1255.56 1108.09 6.59 43.69h-16.88" class="colorStroke000 svgStroke"/><path fill="#f3aaa5" stroke="#f3aaa5" stroke-miterlimit="10" d="M1123.68 1194.55v83.34s50.3 41.22 121.59 7.42v-50.75s-78.25 11.37-104.46-39.42Z" class="colorf3aaa5 svgShape colorStrokef3aaa5 svgStroke"/><path fill="#a01605" d="M1123.68 1277.89S916 1257.7 877.62 1498.8c0 0 61.82-33.38 153.32 43.28l-55.64 56.61s-98.91 300.71-74.18 580.15c0 0 13.13 171.93 70.62 314.73h77.89s3.71-202.15 22.25-285.6c0 0 44.51-189.16 37.09-270.76l51.93-3.71s57.49 179.89 139.09 246.65c0 0-70.47 128-38.94 320.84h85.31s105.7-185.46 85.3-393.17c0 0-27.81-144.65-76-259.63 0 0-9.27-68.62 0-174.33l-34.13-154s75.42-58.11 116.22-58.11c0 0-30-170.45-192.45-176.4-.03-.04-56.08 32.52-121.62-7.46Z" class="colora01605 svgShape"/><path fill="#f3aaa5" stroke="#f3aaa5" stroke-miterlimit="10" d="M877.62 1498.8s-38.33 178 19.79 197.83c0 0 86.55 32.15 264.59-24.73l89-24.73-5.75-87.78s-162.4-13.6-241.53 16.07c0 0 12.36-6.18 27.2-33.38.02 0-79.11-72.95-153.3-43.28ZM1338.81 1508.69s58.11-44.51 98.91-47c0 0 44.52 96.44 61.83 97.68 0 0 48.22-19.79 127.35-33.39 0 0 24.31-5.77 63.06-49.45 0 0 70.06-75.84 93.14-55.23 0 0 21.43 7.42 33.8 56 0 0 23.9 14 0 46.16 0 0 12.36 19 2.47 35.86 0 0 9.89 12.77-2.47 29.26 0 0-25.56 23.9-37.1 19.78 0 0-19-6.59-5.77-21.43 0 0-30.5 1.65-16.48-20.61 0 0-28.85 25-56 32.3 0 0-52.17 21.6-102.83 52.15a307 307 0 0 1-36.51 18.7c-46.45 20.11-141.05 52.32-174.72-.94l-65.94-148.78Z" class="colorf3aaa5 svgShape colorStrokef3aaa5 svgStroke"/><path fill="#001735" d="m1673.27 1345.369 185.752 163.244-15.235 17.337-185.752-163.244z" class="color001735 svgShape"/><path fill="#6e95b9" d="m1877.94 1561.03 17.72-20.16-29.12-40.58-32.12 36.55 43.52 24.19z" class="color6e95b9 svgShape"/><path fill="#042656" d="m1877.94 1561 17.72-20.16c1.58-1.83 43-.35 47.35 51.08-2.93 1.58-46.01 19.19-65.07-30.92Z" class="color042656 svgShape"/><path fill="#ff613e" d="M1062.32 1282.79s53.93 46.21 30.85 170.68h184.64s-14.65-99.13 15.76-160.85c0 0-24.8-9-48.3-7.31 0 0-56.46 34.62-121.59-7.42 0 0-36.38-1.74-61.36 4.9Z" class="colorff613e svgShape"/><path fill="#fa7e83" d="M909.15 1491.7s-48.6 169.64 22.22 191.26S1162 1671.9 1162 1671.9s-164 54.94-264.59 24.73c0 0-60.41-15.87-19.79-197.83Z" class="colorfa7e83 svgShape"/><path fill="#840e06" d="M1028.12 1292.62s65.31 91.27 2.82 249.46c0 0-12.7 23.47-27.2 33.38 0 0 15.57-6.83 39.85-10.52 0 0 55.78-117.39-3.88-276.27Z" class="color840e06 svgShape"/><path fill="none" d="M1433.05 1462.65c3-.67 4.67-.94 4.67-.94A83.94 83.94 0 0 0 1426 1464c2.25-.42 4.62-.87 7.05-1.35Z"/><path fill="#ff613e" d="M1342.13 1454.19c19.72-14 49-29.25 84-30.51-14.61-37.85-45.35-94-104.63-120.76 0 0-9.03 114.78 20.63 151.27ZM1316.3 1489.12a797.01 797.01 0 0 0 5.2 30.7l-5-30.66ZM1384.2 1480.16a236.21 236.21 0 0 0-31.68 18.62c9.58-6.1 20.55-12.69 31.68-18.62ZM1321.5 1519.82s10.39-7.66 25.37-17.41v-.88c-8.09 5.35-16.55 11.41-25.37 18.29ZM1320.46 1305.85c.34-1 .68-2 1-2.93.04 0-.36.98-1 2.93ZM1313.1 1464.92c-1.48-13.23-3.07-30.85-3.77-50.24.48 15.14 1.67 31.88 3.77 50.24Z" class="colorff613e svgShape"/><path fill="#590200" stroke="#590200" stroke-miterlimit="10" d="M1426 1464a83.94 83.94 0 0 1 11.76-2.28c-5.79-.13-12.69 1.26-20.21 3.69 2.67-.41 5.45-.89 8.45-1.41ZM1426.13 1423.68c8.56 22.15 11.59 38 11.59 38-2.47-16.45-11.58-37.98-11.59-38Z" class="color590200 svgShape colorStroke590200 svgStroke"/><path fill="#590200" stroke="#590200" stroke-miterlimit="10" d="M1342.13 1454.19c4 5 8.79 8.51 14.39 10.09 0 0 13 8.57 61 1.12 7.52-2.43 14.42-3.82 20.21-3.69 0 0-3-15.88-11.59-38-35.05 1.23-64.29 16.47-84.01 30.48ZM1346.46 1495.4s-24.53-5.41-29.93-6.24l5 30.66c8.82-6.88 17.28-12.94 25.32-18.29Z" class="color590200 svgShape colorStroke590200 svgStroke"/><path fill="#ff4437" d="M1342.13 1454.19c-29.66-36.49-20.63-151.27-20.63-151.27-.36 1-.7 1.95-1 2.93-.19.57-.4 1.22-.62 2-10.2 31.1-11.8 71.86-10.51 106.88.7 19.39 2.29 37 3.77 50.24 1.66 14.88 3.19 24.2 3.19 24.2q-.84-5.62-1.57-11.08s9.97-11.53 27.37-23.9Z" class="colorff4437 svgShape"/><path fill="#2f0200" stroke="#590200" stroke-miterlimit="10" d="M1433.05 1462.65c1.53-.3 3.09-.61 4.67-.94 0 0-1.66.29-4.67.94ZM1417.51 1465.4c-48 7.45-61-1.12-61-1.12-5.6-1.58-10.35-5.11-14.39-10.09-17.4 12.37-27.38 23.78-27.41 23.81q.74 5.46 1.57 11.08h.23c5.4.83 29.93 6.24 29.93 6.24l.36 6.13v1.3c1.87-1.39 3.75-2.74 5.62-4a236.21 236.21 0 0 1 31.68-18.62 229.69 229.69 0 0 1 48.85-17.51c-2.43.48-4.8.93-7.09 1.34-2.86.56-5.64 1.04-8.35 1.44Z" class="color2f0200 svgShape colorStroke590200 svgStroke"/><circle cx="1191.26" cy="1338.75" r="9.07" fill="#590200" stroke="#590200" stroke-miterlimit="10" class="color590200 svgShape colorStroke590200 svgStroke"/><circle cx="1191.26" cy="1383.4" r="9.07" fill="#590200" stroke="#590200" stroke-miterlimit="10" class="color590200 svgShape colorStroke590200 svgStroke"/><path fill="#4f80be" d="M1496.72 1596.22c13.54 27 17.33 55.3 8.72 81.6-23.27 71.06-128.08 100.52-234.1 65.81-59.87-19.6-107.32-55.48-133.1-95.79 23 45.94 74.36 88.07 141.16 109.94 106 34.71 210.83 5.25 234.09-65.81 10.13-30.97 3.12-64.67-16.77-95.75Z" class="color4f80be svgShape"/><path fill="#63a2be" d="M1496.72 1596.22a174.91 174.91 0 0 0-27.63-39.44 77 77 0 0 1-122.63-61.38c-99.94-26.33-194.9 3.65-216.91 70.87-8.61 26.29-4.84 54.58 8.69 81.57 25.78 40.31 73.23 76.19 133.1 95.79 106 34.71 210.83 5.25 234.1-65.81 8.61-26.3 4.82-54.61-8.72-81.6Z" class="color63a2be svgShape"/><circle cx="1281.62" cy="1527.15" r="30.6" fill="#d2f3ff" transform="rotate(-62.54 1281.63 1527.152)" class="colord2f3ff svgShape"/><circle cx="1187.65" cy="1559.39" r="30.6" fill="#d2f3ff" transform="rotate(-76.72 1187.58 1559.37)" class="colord2f3ff svgShape"/><circle cx="1203.08" cy="1652.36" r="30.6" fill="#d2f3ff" class="colord2f3ff svgShape"/><circle cx="1309.04" cy="1716.03" r="30.6" fill="#d2f3ff" class="colord2f3ff svgShape"/><circle cx="1411.77" cy="1713.56" r="30.6" fill="#d2f3ff" transform="rotate(-76.72 1411.693 1713.545)" class="colord2f3ff svgShape"/><circle cx="1468.02" cy="1636.54" r="30.6" fill="#d2f3ff" transform="rotate(-45 1468.025 1636.534)" class="colord2f3ff svgShape"/><path fill="#840e06" d="M968 1859.31v-87.16a14.89 14.89 0 0 1 14.84-14.84h103.88a14.61 14.61 0 0 1 7 1.79c57.48-34.56 109.34-39.28 109.34-39.28-21.59-13.76-49.71-44.73-49.71-44.73-88.63 35-207.37 30.61-207.37 30.61-120.94 466.09 25.74 787.87 25.74 787.87-60.16-260.39-25.72-486.06-25.72-486.06 6.54-53.86 20.89-97.69 39.63-133.36h-2.79a14.89 14.89 0 0 1-14.84-14.84Z" class="color840e06 svgShape"/><path fill="#ff613e" d="M1086.72 1800.9h-47a294 294 0 0 0-54.08 73.25h101.09a14.89 14.89 0 0 0 14.84-14.84v-73.25a14.89 14.89 0 0 1-14.85 14.84Z" class="colorff613e svgShape"/><path fill="#ff4a31" d="M1039.71 1800.9h-56.87a14.89 14.89 0 0 1-14.84-14.84v73.25a14.89 14.89 0 0 0 14.84 14.84h2.79a294 294 0 0 1 54.08-73.25Z" class="colorff4a31 svgShape"/><path fill="#c82f1c" d="M1093.74 1759.1a289.21 289.21 0 0 0-54 41.8h47a14.89 14.89 0 0 0 14.84-14.84v-13.91a14.87 14.87 0 0 0-7.84-13.05Z" class="colorc82f1c svgShape"/><path fill="#a31b1c" d="M982.84 1757.31a14.89 14.89 0 0 0-14.84 14.84v13.91a14.89 14.89 0 0 0 14.84 14.84h56.87a289.21 289.21 0 0 1 54-41.8 14.61 14.61 0 0 0-7-1.79Z" class="colora31b1c svgShape"/><path fill="#560a00" d="M971.74 2493.57s-45.9 113.07 9.74 113.07h92.74c3 0 34.45-4.17 40.09-24.16a22.13 22.13 0 0 0-4.93-20.44l-59.75-68.47ZM1261.05 2501v49.11s-.13 42.94 30.78 46.65 145.89 0 145.89 0 44.52-4.95 23.5-29.68c0 0-66.52-48.09-114.86-66.08Z" class="color560a00 svgShape"/><path fill="#f3aaa5" stroke="#fa7e83" stroke-miterlimit="10" d="M1731.44 1530.85a111.25 111.25 0 0 1 14.93-16.43 75.09 75.09 0 0 1 23-14c62.88-24.48 55.16-36.61 51.12-39.85a36.43 36.43 0 0 1-3.75-3.6c-37.31-39.94-103.61 20.18-103.61 20.18" class="colorf3aaa5 svgShape colorStrokefa7e83 svgStroke"/><path fill="#ff613e" d="M1037.66 1309.83c-45.2 25-96 68.09-119.51 141 65.5-6.58 115.6 31 128.88 42.21 11.97-47.04 21.42-119.97-9.37-183.21ZM1028.24 1292.83l-.12-.21s-93 25.14-134.53 140c19.18-49.49 57.85-111.7 134.65-139.79Z" class="colorff613e svgShape"/><path fill="#590200" stroke="#590200" stroke-miterlimit="10" d="M908.36 1492.58c-.23 1.48-.45 3-.65 4.49 28.77-1.28 74.24 6.11 125.86 49.38l16.94-50.37s-1.2-1.15-3.48-3.06c-7.55 29.7-16.09 49.06-16.09 49.06-50.88-43.62-94.94-50.9-122.58-49.5ZM885 1457.84v.12-.12Z" class="color590200 svgShape colorStroke590200 svgStroke"/><path fill="#590200" stroke="#590200" stroke-miterlimit="10" d="M918.15 1450.81a266.48 266.48 0 0 0-9.79 41.77c27.66-1.4 71.7 5.88 122.58 49.5 0 0 8.54-19.36 16.09-49.06-13.28-11.17-63.38-48.79-128.88-42.21Z" class="color590200 svgShape colorStroke590200 svgStroke"/><path fill="#ff5337" d="M1028.24 1292.83c-76.8 28.09-115.47 90.3-134.65 139.82-3.44 8.9-6.26 17.38-8.55 25.19l.78-.24a156.69 156.69 0 0 1 32.33-6.79c23.53-72.89 74.31-116 119.51-141a180.12 180.12 0 0 0-9.42-16.98Z" class="colorff5337 svgShape"/><path fill="#2f0200" stroke="#590200" stroke-miterlimit="10" d="M907.71 1497.07c-20.28.9-32.28 6.11-32.28 6.11Z" class="color2f0200 svgShape colorStroke590200 svgStroke"/><path fill="#2f0200" stroke="#590200" stroke-miterlimit="10" d="m885.82 1457.6-.78.24v.12c-7.8 26.57-9.57 45.22-9.57 45.22s12-5.21 32.28-6.11c.2-1.51.42-3 .65-4.49a266.48 266.48 0 0 1 9.79-41.77 156.69 156.69 0 0 0-32.37 6.79Z" class="color2f0200 svgShape colorStroke590200 svgStroke"/><path fill="#fa7e83" d="M1756.75 1449.57s-27.68 12.51-37.06 22.18c0 0 13.6-22.81 26.18-31.74Z" class="colorfa7e83 svgShape"/><path fill="none" stroke="#fa7e83" stroke-miterlimit="10" d="m1816.9 1523.53-56.23 40.61a11 11 0 0 1-10.27 1.5c-3.87-1.5-7.34-5.4-4.53-15.29 5.29-18.6 39.94-41.94 39.94-41.94M1819.37 1559.39l-36.85 22.7" class="colorStrokefa7e83 svgStroke"/><path fill="#fa7e83" d="M1245.27 1234.56s-35.34 4.76-63.07-6c0 0-27.32-7.81-41.39-33.38 0 0 12.17 57.6 104.46 72.91ZM1120.18 1121.43v30.35s-19.7-4.59-19-21.85c.03 0 2.95-12.87 19-8.5ZM1316.68 1004.37s-63.11 19.56-95.16 18c0 0 10.48-13.31 12.19-26.77 0-.02 53.95 14.9 82.97 8.77ZM1518 1667.14l183.5-68.45s-147.48 77.8-188 93.28c-.01.03 4.5-15.88 4.5-24.83Z" class="colorfa7e83 svgShape"/><path fill="#840e06" d="M1160.9 1933.5s33.91-15 42.18-44.27c0 0 21.41 211.5 117.7 284.81 0 0-72.29 129.48-64 295.61 0 0-23.48-149.9 43.26-289.5-.04 0-72.52-48.43-139.14-246.65Z" class="color840e06 svgShape"/><path fill="#ff4437" d="m1062.32 1282.79 8.71 10s13.85-9.48 52.65-14.94c0 .04-31.68-2.21-61.36 4.94Z" class="colorff4437 svgShape"/><path fill="#d01c00" stroke="#ef1c00" stroke-miterlimit="10" d="M1055 946s-14.81 70.91 55.72 88.37 110.84-12 110.84-12-16 59.15-128.52 45.74-49.79-105.23-49.79-105.23Z" class="colord01c00 svgShape colorStrokeef1c00 svgStroke"/><path fill="#371209" stroke="#551209" stroke-miterlimit="10" d="M1057.65 1060.47s33.4 12.68 92 9.29c0 0-44.93 21.48-92 25.41ZM1233.71 995.58s-2-19.53 27.21-8.66 54.3 5.47 64.78-4.84c0 0-13.83 33.16-91.99 13.5Z" class="color371209 svgShape colorStroke551209 svgStroke"/><path fill="#ffffff" d="M1202.43 470.9a167.94 167.94 0 0 1 136.86 265.24 167.93 167.93 0 1 0-261.06-210.34 167.5 167.5 0 0 1 124.2-54.9Z" class="colorfff svgShape"/><path fill="#ffbdd4" d="M1215.1 791a167.94 167.94 0 0 1-136.87-265.2 167.93 167.93 0 1 0 261.06 210.34A167.48 167.48 0 0 1 1215.1 791Z" class="colorffbdd4 svgShape"/><path fill="#ffffff" d="M1215.1 791a167.48 167.48 0 0 0 124.19-54.9 167.93 167.93 0 0 0-261.06-210.3A167.94 167.94 0 0 0 1215.1 791Z" class="colorfff svgShape"/><path fill="#ffbdd4" d="m1254.75 757.44 2.79 3.7q6.18-1.92 12.13-4.35l-3.77-5q-5.44 3.05-11.15 5.65ZM1339.8 625.52a144.07 144.07 0 0 1-26.42 83.38l8.51 11.29a144.81 144.81 0 0 0-137-239.09c3.34-.23 6.71-.36 10.12-.36a144.78 144.78 0 0 1 144.79 144.78ZM1224.91 767.21q2.79-.19 5.57-.5l-.48-.71c-1.71.46-3.39.85-5.09 1.21Z" class="colorffbdd4 svgShape"/><path fill="#ffd6d4" d="m1265.9 751.79-164.81-218.64q-4 5.05-7.53 10.46l161.19 213.83q5.71-2.59 11.15-5.65ZM1080.72 568a144.86 144.86 0 0 0 134.07 199.53c3.4 0 6.77-.13 10.12-.36 1.7-.36 3.38-.75 5.06-1.17ZM1339.8 625.52A144.78 144.78 0 0 0 1195 480.74c-3.41 0-6.78.13-10.12.36a143.71 143.71 0 0 0-34.26 11.9l162.76 215.9a144.07 144.07 0 0 0 26.42-83.38Z" class="colorffd6d4 svgShape"/><path fill="#ffbdd4" d="m1321.89 720.19-8.51-11.29a145.47 145.47 0 0 1-47.48 42.89l3.77 5a145 145 0 0 0 52.22-36.6Z" class="colorffbdd4 svgShape"/><path fill="#fff1ed" d="M1313.38 708.9 1150.62 493a145.22 145.22 0 0 0-49.53 40.17l164.81 218.62a145.47 145.47 0 0 0 47.48-42.89Z" class="colorfff1ed svgShape"/><path fill="#ffbdd4" d="m1230 766 .51.67a144.19 144.19 0 0 0 27.06-5.57l-2.79-3.7A144.28 144.28 0 0 1 1230 766Z" class="colorffbdd4 svgShape"/><path fill="#fff1ed" d="m1254.75 757.44-161.19-213.83a144.21 144.21 0 0 0-12.84 24.39L1230 766a144.28 144.28 0 0 0 24.75-8.56Z" class="colorfff1ed svgShape"/><circle cx="1215.1" cy="623.12" r="20.08" fill="#ffffff" class="colorfff svgShape"/><path fill="#ffffff" d="M1209.88 527.38h9.07v92.74h-9.07zM1215.1 503.25l-13.93 24.13h27.86l-13.93-24.13zM1189.02 687.836l-6.096-3.166 31.388-60.424 6.097 3.167z" class="colorfff svgShape"/><path fill="#ffffff" d="m1177.42 701.68 17.52-10.86-18.71-9.72 1.19 20.58z" class="colorfff svgShape"/><path fill="#ffcac0" d="M2401.52 1569.58c-13.91-18.16-19.74-41.43-15-63.81a80.23 80.23 0 0 1 2.21-8.28c11-33.58-8.75-89.38-56.89-85-46.64 4.24-63.46 12.9-84.4 11.14a30.26 30.26 0 0 1-3.66-.57c-11.05-2.34-76.64-13.08-125.45 48.69 0 0-17.37 27.18-41.44 39.21-23.34 11.68-61.09 24.36-70.34 71.53l180.15 3.51a46.52 46.52 0 0 1 84.85 1.66l144 2.82a207.43 207.43 0 0 0-14.03-20.9ZM2005.29 1587a46 46 0 0 0 5 29.37l174 4.55a46.52 46.52 0 0 1 1.95-34.9l-180.17-3.53c-.28 1.51-.55 2.97-.78 4.51ZM2272.2 1587.68a46.56 46.56 0 0 1 .35 35.53l159.78 4.18a158.76 158.76 0 0 0-16.1-36.89Z" class="colorffcac0 svgShape"/><path fill="#fff0b7" d="M2229.84 1514.25c-41.9 0-75.87 36.38-75.87 81.26a86.28 86.28 0 0 0 4.08 26.27l142.21 4a86 86 0 0 0 5.46-30.26c0-44.89-33.97-81.27-75.88-81.27Z" class="colorfff0b7 svgShape"/><path fill="#ffcd98" d="M2229.84 1530.85c-36.16 0-65.48 30.17-65.48 67.39a69 69 0 0 0 3.52 21.79l122.73 3.31a68.89 68.89 0 0 0 4.71-25.1c0-37.24-29.32-67.39-65.48-67.39Z" class="colorffcd98 svgShape"/><path fill="#ffbb7c" d="M2229.84 1544.1a57.74 57.74 0 0 0-54.63 76.4l108.21 2.84a57.72 57.72 0 0 0-53.58-79.24Z" class="colorffbb7c svgShape"/><path fill="#76b5ef" d="M2435.75 1655.4v-.55l-392.7-8.72a137.64 137.64 0 0 0 27.26 11.45s16.72 3.72 24.74 16.61l334.78 7.82c3.58-6.24 5.92-14.83 5.92-26.61Z" class="color76b5ef svgShape"/><path fill="#c5daef" d="m2431.68 1627.39-159.77-4.18-87.16-2.29-174-4.55c7.2 13.36 20.23 23.11 32.27 29.76l392.7 8.72a104.37 104.37 0 0 0-4.04-27.46Z" class="colorc5daef svgShape"/><path fill="#ff613e" d="m2294.27 1633.86-130.05-5a5.27 5.27 0 0 1-5-5.46 5.27 5.27 0 0 1 5.46-5.06l130 5a5.28 5.28 0 0 1 5.06 5.46 5.28 5.28 0 0 1-5.47 5.06Z" class="colorff613e svgShape"/><path fill="#ff8f3e" d="m2291.84 1643.16-125.18-4.79a5.09 5.09 0 0 1-4.87-5.26 5.08 5.08 0 0 1 5.26-4.86l125.18 4.79a5.08 5.08 0 0 1 4.87 5.26 5.08 5.08 0 0 1-5.26 4.86Z" class="colorff8f3e svgShape"/><rect width="118.66" height="10.13" x="2169.16" y="1640.35" fill="#ffb53e" rx="4.74" transform="rotate(2.19 2232.038 1648.106)" class="colorffb53e svgShape"/><rect width="100.7" height="10.13" x="2178.22" y="1650.24" fill="#ffc978" rx="4.37" transform="rotate(2.19 2231.967 1658.051)" class="colorffc978 svgShape"/><rect width="87.02" height="10.13" x="2186.33" y="1659.56" fill="#ffe686" rx="4.06" transform="rotate(2.19 2233.188 1667.187)" class="colorffe686 svgShape"/><rect width="63.35" height="10.13" x="2198.17" y="1668.5" fill="#fff8b5" rx="3.47" transform="rotate(2.19 2233.096 1676.086)" class="colorfff8b5 svgShape"/><rect width="47.57" height="9.51" x="2206.06" y="1677.52" fill="#fff8de" rx="2.91" transform="rotate(2.19 2233.266 1684.98)" class="colorfff8de svgShape"/><rect width="35.05" height="9.51" x="2211.92" y="1685.68" fill="#fff8ff" rx="2.5" transform="translate(66.33 -84.09)" class="colorfff8ff svgShape"/><path fill="#5486ef" d="M2095 1674.19c4.29 6.88 6.09 16.39 1.52 29.35a20.55 20.55 0 0 0-.87 3.26l210.31 7.27a316.32 316.32 0 0 0 30.95-13.28c2.67-1.33 5.28-2.77 7.87-4.24 5.43-3.07 21.85-10.42 42.73-1.51a35.25 35.25 0 0 0 25.54.91 30.64 30.64 0 0 0 16.73-13.94Z" class="color5486ef svgShape"/><path fill="#4845ef" d="M2190.66 1738.55s56.33-2.7 115.34-24.48l-210.31-7.27c-5.88 33.81 94.97 31.75 94.97 31.75Z" class="color4845ef svgShape"/><path fill="#ff9258" d="M2271.54 1587.65c-.25-.56-.5-1.12-.76-1.68l-.37-.74c-.18-.36-.36-.72-.55-1.07s-.26-.5-.4-.75-.44-.78-.67-1.16l-.37-.64c-.31-.5-.64-1-1-1.5l-.46-.66c-.23-.34-.47-.67-.71-1s-.32-.45-.49-.67-.57-.73-.86-1.1c-.14-.16-.27-.33-.41-.5-.39-.47-.78-.92-1.19-1.37l-.52-.57c-.29-.3-.57-.61-.87-.91l-.55-.55c-.36-.36-.72-.7-1.08-1l-.38-.35c-.46-.42-.94-.83-1.42-1.23l-.56-.46c-.35-.27-.69-.55-1-.81l-.59-.45c-.43-.32-.88-.63-1.32-.94l-.31-.21c-.54-.36-1.08-.71-1.64-1l-.58-.35c-.39-.24-.8-.47-1.2-.69l-.61-.34c-.51-.27-1-.54-1.57-.8l-.22-.11c-.6-.29-1.21-.56-1.82-.82l-.59-.25c-.45-.19-.9-.36-1.36-.54l-.61-.22c-.59-.22-1.19-.42-1.79-.61h-.15c-.65-.2-1.31-.38-2-.56l-.6-.15c-.5-.12-1-.24-1.49-.34l-.62-.13c-.66-.13-1.32-.26-2-.36h-.07c-.69-.1-1.39-.19-2.09-.26-.2 0-.41 0-.62-.06-.52 0-1.05-.09-1.57-.12h-5.54l-1.64.13-.53.05c-.69.07-1.37.16-2.06.26l-.43.07-1.64.29-.62.13c-.56.12-1.12.25-1.67.39l-.35.08c-.65.17-1.29.35-1.93.55l-.59.19c-.47.15-.93.3-1.4.47l-.61.22c-.6.22-1.21.46-1.81.71l-.4.18-1.42.64-.67.32c-.41.21-.81.41-1.21.63-.2.1-.4.2-.59.31-.54.29-1.08.6-1.61.92l-.63.4c-.35.21-.7.44-1 .66l-.7.47c-.36.25-.72.5-1.07.76l-.87.65c-.36.27-.71.55-1.06.83l-.7.59-.8.69-.69.62q-.56.51-1.11 1l-.79.81c-.23.24-.46.47-.68.71l-.69.76-.6.69-1.06 1.29c-.21.26-.42.52-.62.79l-.65.88-.48.68c-.21.3-.42.6-.62.91l-.45.69c-.34.54-.68 1.09-1 1.65-.14.23-.27.46-.4.7l-.54 1-.36.72c-.17.34-.35.67-.51 1a46.52 46.52 0 0 0-1.95 34.9l87.16 2.29a46.64 46.64 0 0 0-.37-35.56Z" class="colorff9258 svgShape"/><path fill="#ffffff" d="M2072.75 1457.68c2.71-1.94 15.91-9.56 44.9.42 0 0 15.42 6.38 12.83-3.93s22.24-7.23 22.24-7.23a58.1 58.1 0 0 1 24.64 13.69c11.88 11 47.18 2.38 47.18 2.38s17.53-4.66 19.5 12.22c1.15 9.84-13.7 13.59-26.28 15a74.3 74.3 0 0 1-27.17-2c-18.3-4.77-54.92-13-60.11-4.38-1.78 3-1.45 6.55 6.66 10a6.29 6.29 0 0 1 3.25 3c1.22 2.64.84 7-9.91 11.45-15.87 6.58-56.55-2.24-65.21-17.12a9.88 9.88 0 0 1-.58-9.13c1.54-3.31 5.51-6.93 15.54-6.71a25.3 25.3 0 0 1 3 .27c3.67.51 14.69 1.56 14-4.63-.8-7.41-22.08-4.28-22.08-4.28s-7.81-1.58-3.36-8.07a3.82 3.82 0 0 1 .96-.95Z" class="colorfff svgShape"/><path fill="#ffffe3" d="M2369.12 1449.65c-2.69 2-15.78 9.79-44.91.22 0 0-15.5-6.17-12.76 4.11s-22.14 7.54-22.14 7.54a58 58 0 0 1-24.83-13.34c-12-10.81-47.21-1.71-47.21-1.71s-17.46 4.9-19.67-11.94c-1.29-9.83 13.51-13.78 26.07-15.38a74.56 74.56 0 0 1 27.19 1.64c18.37 4.52 55.1 12.28 60.17 3.53 1.74-3 1.35-6.57-6.8-9.9a6.18 6.18 0 0 1-3.29-3c-1.27-2.62-1-7 9.74-11.58 15.78-6.81 56.58 1.44 65.45 16.19a9.9 9.9 0 0 1 .71 9.12c-1.5 3.33-5.42 7-15.45 6.93a27.51 27.51 0 0 1-3-.22c-3.68-.47-14.71-1.35-14 4.82.9 7.4 22.13 4 22.13 4s7.84 1.47 3.48 8a3.66 3.66 0 0 1-.88.97ZM2373.6 1472.9c-.19 4.87-13.73 8.3-30.25 7.67s-29.77-5.09-29.58-10 13.73-8.31 30.25-7.68 29.77 5.11 29.58 10.01ZM2125.36 1556.75c-.18 4.87-13.73 8.3-30.25 7.67s-29.77-5.1-29.58-10 13.73-8.3 30.25-7.67 29.77 5.13 29.58 10ZM2054.28 1586.74c-.19 4.87-13.73 8.31-30.25 7.67s-29.77-5.09-29.58-10 13.73-8.31 30.25-7.67 29.77 5.13 29.58 10Z" class="colorffffe3 svgShape"/><ellipse cx="2404.07" cy="1581.94" fill="#ffffe3" rx="8.82" ry="29.94" transform="rotate(-87.81 2403.953 1581.965)" class="colorffffe3 svgShape"/></svg>