<svg width="960" height="960" viewBox="0 0 960 960" fill="none" xmlns="http://www.w3.org/2000/svg">
<g clip-path="url(#clip0_510_1395)">
<path fill-rule="evenodd" clip-rule="evenodd" d="M489.566 145.833C489.566 145.833 481.171 127.445 472.877 117.752C464.592 108.048 459.127 106.809 448.195 105.58C437.263 104.351 390.346 121.459 381 135.21C371.654 148.961 393.759 178.242 393.759 178.242L393.869 178.481C412.574 170.397 431.688 163.292 451.131 157.196C466.141 152.419 478.883 148.641 489.566 145.833ZM453.057 112.107C452.288 111.8 451.415 112.174 451.107 112.943C450.8 113.712 451.174 114.585 451.943 114.893C455.111 116.16 460.205 119.014 464.985 123.405C469.76 127.791 474.143 133.639 476.049 140.882C476.26 141.683 477.081 142.161 477.882 141.951C478.683 141.74 479.161 140.919 478.951 140.118C476.857 132.161 472.073 125.842 467.015 121.195C461.961 116.553 456.555 113.507 453.057 112.107Z" fill="url(#paint0_linear_510_1395)"/>
<path fill-rule="evenodd" clip-rule="evenodd" d="M353.156 398.925L448.073 377.988L457.945 382.226L461.203 409.008L461.532 408.968C461.532 408.968 467.347 410.547 475.813 405.79C479.137 403.923 480.558 401.375 481.913 398.947C484.008 395.191 485.943 391.723 494.513 391.51C501.575 391.335 506.381 395.441 510.925 399.321C515.459 403.195 519.732 406.844 525.722 405.79C537.714 403.681 540.842 395.507 540.842 395.507L540.902 395.497C540.182 391.819 539.773 389.741 539.773 389.741C539.773 389.741 730.237 377.049 709.081 149.426C699.604 146.896 689.893 145.346 680.1 144.799C664.346 143.881 648.556 145.852 633.511 150.613C627.911 152.323 622.502 154.607 617.371 157.428C624.786 316.453 492.354 313.225 488.597 313.095C488.707 307.659 488.717 296.077 486.988 292.339C485.349 288.792 473.517 287.892 459.476 287.792C453.96 287.752 448.093 287.832 442.367 287.932C433.223 288.093 422.72 288.543 413.576 289.232C402.424 290.062 393.28 291.241 391.051 292.7C388.123 294.599 389.422 304.389 390.372 309.689L389.762 309.799C310.454 316.109 279.8 366.076 269.871 417.309C259.848 469.041 270.991 522.076 274.538 532.709C280.314 550.045 292.087 545.298 296.164 543.009C296.655 542.743 297.129 542.446 297.583 542.12L347.51 525.651C347.51 525.651 364.449 522.123 358.723 502.146C355.675 491.503 353.366 481.6 351.687 472.376C350.244 464.574 349.203 456.702 348.569 448.792C346.95 428.035 348.899 411.616 352.507 398.745L353.156 398.925ZM699.01 159.169C705.133 213.121 685.584 332.518 558.489 378.59L559.511 381.41C688.416 334.682 708.2 213.546 701.99 158.831L699.01 159.169Z" fill="#171717"/>
<path d="M874.012 854.6C874.012 854.6 878.139 868.131 867.556 888.588C856.973 909.045 796.673 917.818 796.673 917.818V917.828C779.864 914.628 765.403 904.837 758.928 885.41C755.8 876.026 750.193 864.843 742.928 852.631L743.878 852.072C743.878 852.072 769.178 854.65 776.756 821.482C785.53 840.09 791.146 852.891 792.785 855.082C799.131 863.546 849.927 850.855 849.927 850.855C849.927 850.855 864.588 847.189 874.012 854.6Z" fill="url(#paint1_linear_510_1395)"/>
<path d="M551.7 453.359L550.82 453.409C550.82 453.409 547.593 461.583 535.181 463.692C522.769 465.801 517.481 449.061 502.892 449.411C488.303 449.761 492.309 458.935 483.545 463.692C474.781 468.449 468.765 466.87 468.765 466.87L468.265 466.93L464.747 438.039L465.457 437.949C465.457 437.949 471.373 439.528 479.967 434.771C488.561 430.014 484.624 420.84 498.955 420.48C513.286 420.12 518.482 436.889 530.664 434.771C542.846 432.653 546.014 424.488 546.014 424.488L546.414 424.418C548.057 433.199 549.866 443.075 551.7 453.359Z" fill="#171717"/>
<path d="M395.878 206.882C392.63 207.901 355.705 219.263 351.667 208.92C348.999 202.105 366.298 190.632 393.867 178.48C412.572 170.397 431.686 163.294 451.131 157.199C466.141 152.422 478.883 148.644 489.566 145.836C519.886 137.861 533.627 137.592 535.546 143.927C538.134 152.492 512.731 161.945 512.731 161.945L512.651 162.485C507.409 161.889 502.121 161.792 496.861 162.195C496.861 162.195 395.288 177.775 398.696 188.588C399.925 192.505 398.916 199.471 397.296 206.888L395.878 206.882Z" fill="url(#paint2_linear_510_1395)"/>
<path d="M414.636 188.7L414.106 238.687L413.626 238.677C413.626 238.677 405.042 251.368 399.755 246.432C394.709 241.725 401.524 231.461 402.174 230.512C401.574 231.302 395.898 238.537 392.23 236.088C389.752 234.439 394.449 219.969 397.297 206.888C398.916 199.473 399.925 192.507 398.697 188.588C395.289 177.775 496.862 162.195 496.862 162.195C502.123 161.792 507.41 161.889 512.652 162.485C516.552 163.045 519.857 164.164 520.676 166.253C522.965 172.069 501.269 174.887 501.269 174.887C501.269 174.887 521.556 193.764 505.686 199.76C491.576 205.087 490.836 183.26 490.856 178.335V178.325C490.856 177.715 490.866 177.365 490.866 177.365C490.866 177.365 451.366 169.42 415.276 188.708L414.636 188.7Z" fill="#171717"/>
<path d="M461.534 408.969C461.534 408.969 467.351 410.558 475.815 405.791C484.279 401.024 480.402 391.86 494.515 391.511C508.628 391.162 513.732 407.911 525.724 405.791C537.716 403.671 540.844 395.508 540.844 395.508L540.904 395.498C542.073 401.524 544.072 411.847 546.41 424.419L546.01 424.489C546.01 424.489 542.842 432.653 530.66 434.772C518.478 436.891 513.281 420.132 498.951 420.481C484.621 420.83 488.568 430.005 479.963 434.772C471.358 439.539 465.453 437.95 465.453 437.95L464.743 438.04L461.206 409.009L461.534 408.969Z" fill="url(#paint3_linear_510_1395)"/>
<path d="M363.8 594.236C403.594 587.421 521.906 564.626 555.164 555.482C553 609.936 518.857 635.109 475.815 649.1C428.087 664.62 386.815 668.147 356.834 654.746C350.668 651.988 342.763 648.76 333.689 645.652C349.818 619.352 363.799 594.246 363.799 594.246L363.8 594.236Z" fill="url(#paint4_linear_510_1395)"/>
<path d="M356.834 654.747C386.814 668.147 428.087 664.621 475.815 649.101C518.857 635.11 553.004 609.937 555.163 555.483C556.202 555.193 557.163 554.923 558.031 554.664C558.031 554.664 639.007 608.428 645.593 616.892C646.962 618.661 645.433 624.227 642.055 631.962C635.939 645.983 623.787 667.109 611.895 685.597C598.884 705.843 586.182 722.942 582.105 724.111C572.221 726.94 477.705 666.27 477.705 666.27C477.705 666.27 437.731 750.924 428.787 766.913C423.82 775.797 376.587 760.427 339.067 741.79C325.715 735.144 313.593 728.099 305.049 721.563C294.406 713.458 289.309 706.173 294.296 701.536C303.75 692.742 319.539 668.736 333.69 645.653C342.763 648.761 350.668 651.989 356.834 654.747Z" fill="url(#paint5_linear_510_1395)"/>
<path d="M142.401 864.257C115.588 876.948 93.3726 866.375 90.1946 842.741C87.0166 819.107 142.681 752.111 142.681 752.111C148.766 753.33 158.75 755.269 168.733 757.028C173.476 757.818 178.275 758.223 183.084 758.237V758.247C172.491 776.147 185.032 794.547 188.09 798.56C176.158 799.36 168.733 799.36 168.733 799.36C150.861 812.051 150.391 844.499 142.401 864.257Z" fill="url(#paint6_linear_510_1395)"/>
<path d="M389.762 309.801C310.454 316.111 279.8 366.078 269.871 417.301C259.848 469.037 270.991 522.072 274.538 532.701C280.314 550.04 292.087 545.293 296.164 543.001C296.655 542.734 297.129 542.437 297.583 542.112L347.51 525.643C347.51 525.643 364.449 522.115 358.723 502.138C355.675 491.495 353.366 481.592 351.687 472.368C350.244 464.565 349.203 456.693 348.569 448.784C346.95 428.027 348.899 411.608 352.507 398.737C361.601 366.278 381.298 356.345 381.298 356.345" stroke="#171717" stroke-width="3" stroke-linecap="round" stroke-linejoin="round"/>
<path d="M488.518 313.092H488.598C492.355 313.222 624.787 316.45 617.372 157.425C622.502 154.603 627.911 152.32 633.512 150.61C648.557 145.85 664.347 143.881 680.101 144.8C689.894 145.346 699.605 146.897 709.082 149.427" stroke="#171717" stroke-width="3" stroke-linecap="round" stroke-linejoin="round"/>
<path d="M350.729 576.919C350.729 576.919 345.552 595.726 350.729 596.196C351.468 596.266 356.205 595.546 363.8 594.237C403.594 587.422 521.906 564.627 555.164 555.483C556.203 555.193 557.164 554.923 558.032 554.664C561.17 553.734 563.158 552.985 563.758 552.464C567.745 549.006 559.571 497.5 551.696 453.364C549.867 443.08 548.058 433.207 546.409 424.423C544.071 411.851 542.072 401.528 540.903 395.502C540.183 391.824 539.774 389.746 539.774 389.746C539.774 389.746 730.238 377.051 709.082 149.432" stroke="#171717" stroke-width="3" stroke-linecap="round" stroke-linejoin="round"/>
<path d="M363.8 594.247C363.8 594.247 349.819 619.347 333.69 645.653C319.539 668.738 303.75 692.742 294.296 701.536C289.309 706.173 294.406 713.458 305.049 721.563C313.593 728.099 325.715 735.144 339.067 741.79C376.582 760.427 423.82 775.797 428.787 766.913C437.73 750.924 477.7 666.27 477.7 666.27C477.7 666.27 572.217 726.94 582.1 724.111C586.177 722.942 598.879 705.843 611.89 685.597C623.782 667.109 635.934 645.983 642.05 631.962C645.428 624.227 646.957 618.662 645.588 616.892C639.002 608.428 558.026 554.664 558.026 554.664" stroke="#171717" stroke-width="3" stroke-linecap="round" stroke-linejoin="round"/>
<path d="M391.051 313.112C391.051 313.112 390.741 311.733 390.372 309.685C389.422 304.385 388.123 294.595 391.051 292.696C393.28 291.237 402.424 290.058 413.576 289.228C422.72 288.539 433.223 288.089 442.367 287.928C448.093 287.828 453.96 287.748 459.476 287.788C473.517 287.888 485.349 288.788 486.988 292.335C488.717 296.073 488.707 307.655 488.597 313.091C488.567 314.85 488.517 315.969 488.517 315.969" stroke="#171717" stroke-width="3" stroke-linecap="round" stroke-linejoin="round"/>
<path d="M413.576 289.219L414.106 238.683L414.636 188.696L414.685 184.059" stroke="#171717" stroke-width="3" stroke-linecap="round" stroke-linejoin="round"/>
<path d="M490.855 178.322C490.861 178.296 490.864 178.269 490.865 178.242" stroke="#171717" stroke-width="3" stroke-linecap="round" stroke-linejoin="round"/>
<path d="M459.476 287.779C459.476 287.779 455.249 269.591 460.535 265.354C465.821 261.117 478.173 261.477 482.75 248.425C487.227 235.684 490.695 180.9 490.855 178.332" stroke="#171717" stroke-width="3" stroke-linecap="round" stroke-linejoin="round"/>
<path d="M402.224 230.436C402.205 230.458 402.188 230.481 402.174 230.506C401.574 231.296 395.898 238.531 392.23 236.082C389.752 234.433 394.449 219.963 397.297 206.882C398.916 199.467 399.925 192.501 398.697 188.582C395.289 177.769 496.862 162.189 496.862 162.189C502.123 161.786 507.41 161.883 512.652 162.479C516.552 163.039 519.857 164.158 520.676 166.247C522.965 172.063 501.269 174.881 501.269 174.881C501.269 174.881 521.556 193.758 505.686 199.754C491.576 205.081 490.836 183.254 490.856 178.329V178.319C490.856 177.709 490.866 177.359 490.866 177.359C490.866 177.359 451.366 169.414 415.276 188.702" stroke="#171717" stroke-width="3" stroke-linecap="round" stroke-linejoin="round"/>
<path d="M413.627 238.673C413.627 238.673 405.043 251.364 399.756 246.428C394.71 241.721 401.525 231.457 402.175 230.508" stroke="#171717" stroke-width="3" stroke-linecap="round" stroke-linejoin="round"/>
<path d="M396.108 206.812C396.108 206.812 396.028 206.842 395.878 206.882C392.63 207.901 355.705 219.263 351.667 208.92C348.999 202.105 366.298 190.632 393.867 178.48C412.572 170.397 431.686 163.294 451.131 157.199C466.141 152.422 478.883 148.644 489.566 145.836C519.886 137.861 533.627 137.592 535.546 143.927C538.134 152.492 512.731 161.945 512.731 161.945" stroke="#171717" stroke-width="3" stroke-linecap="round" stroke-linejoin="round"/>
<path d="M393.759 178.242C393.759 178.242 371.654 148.961 381 135.21C390.346 121.459 437.263 104.351 448.195 105.58C459.127 106.809 464.595 108.048 472.879 117.752C481.163 127.456 489.568 145.833 489.568 145.833" stroke="#171717" stroke-width="3" stroke-linecap="round" stroke-linejoin="round"/>
<path d="M663.221 121.219C663.219 121.206 663.216 121.192 663.211 121.179C662.931 119.391 654.227 63.1884 664.63 60.7894C675.213 58.3514 680.15 143.924 680.15 143.924" stroke="#171717" stroke-width="3" stroke-linecap="round" stroke-linejoin="round"/>
<path d="M649.35 124.038C649.35 124.021 649.346 124.004 649.34 123.988C648.94 122.069 637.248 65.6879 643.94 63.3779C650.655 61.0589 662.84 119.391 663.207 121.178" stroke="#171717" stroke-width="3" stroke-linecap="round" stroke-linejoin="round"/>
<path d="M635.71 132.272L635.7 132.262C635.4 131.243 619.091 76.2786 627.016 72.7806C634.871 69.3136 648.852 122.129 649.341 123.988" stroke="#171717" stroke-width="3" stroke-linecap="round" stroke-linejoin="round"/>
<path d="M633.631 150.721C633.631 150.721 633.591 150.681 633.511 150.611C631.542 148.872 605.349 125.488 610.556 120.281C615.892 114.945 635.18 131.803 635.699 132.263" stroke="#171717" stroke-width="3" stroke-linecap="round" stroke-linejoin="round"/>
<path d="M296.164 543.01C297.675 547.593 299.696 551.991 302.19 556.122C303.869 558.963 305.816 561.637 308.006 564.106C315.271 572.221 326.174 578.347 341.494 572.741" stroke="#171717" stroke-width="3" stroke-linecap="round" stroke-linejoin="round"/>
<path d="M329.683 564.105C333.011 567.718 337.067 570.586 341.583 572.52C344.532 573.793 347.673 574.563 350.877 574.798C356.223 575.178 362.377 574.019 369.055 569.971" stroke="#171717" stroke-width="3" stroke-linecap="round" stroke-linejoin="round"/>
<path d="M348.43 560.049C348.43 560.049 358.114 567.274 369.057 569.972H369.067C376.212 571.741 383.897 571.572 389.767 566.215C398.811 557.95 392.705 545.369 392.705 545.369" stroke="#171717" stroke-width="3" stroke-linecap="round" stroke-linejoin="round"/>
<path d="M347.51 525.652C347.51 525.652 361.201 533.077 372.244 540.812C375.148 542.808 377.937 544.967 380.598 547.277C384.645 550.877 386.934 554.063 385.525 555.992C377.77 566.575 349.868 543.01 349.868 543.01" stroke="#171717" stroke-width="3" stroke-linecap="round" stroke-linejoin="round"/>
<path d="M269.872 417.303L223.283 427.587L218.227 574.379L226.341 580.326L307.997 564.106" stroke="#171717" stroke-width="3" stroke-linecap="round" stroke-linejoin="round"/>
<path d="M381.527 546.997L392.61 544.878L475.815 528.949L472.357 500.567L470.129 482.289L468.26 466.93L464.742 438.039L461.205 409.008L457.947 382.226L448.073 377.988L353.156 398.925" stroke="#171717" stroke-width="3" stroke-linecap="round" stroke-linejoin="round"/>
<path d="M372.244 540.811L465.822 522.133L448.073 377.988" stroke="#171717" stroke-width="3" stroke-linecap="round" stroke-linejoin="round"/>
<path d="M302.191 556.123L218.227 574.38" stroke="#171717" stroke-width="3" stroke-linecap="round" stroke-linejoin="round"/>
<path d="M399.806 311.113H478.994" stroke="#171717" stroke-width="3" stroke-linecap="round" stroke-linejoin="round"/>
<path d="M305.038 721.572C305.038 721.572 297.683 741.039 253.9 749.5C221.361 755.795 198.986 758.454 183.077 758.234C178.269 758.219 173.469 757.815 168.726 757.025C158.743 755.266 148.759 753.325 142.674 752.108C139.006 751.378 136.747 750.919 136.747 750.919C136.747 750.919 71.8472 820.982 79.8472 851.552C87.8472 882.122 134.401 884.001 142.396 864.252C150.391 844.503 150.86 812.046 168.728 799.352C168.728 799.352 176.153 799.352 188.085 798.552C206.173 797.343 234.635 794.305 263.256 786.652C310.385 774.06 338.636 742.271 339.066 741.782L339.076 741.772" stroke="#171717" stroke-width="3" stroke-linecap="round" stroke-linejoin="round"/>
<path d="M188.715 799.371C188.715 799.371 188.475 799.091 188.085 798.561C185.027 794.544 172.485 776.146 183.079 758.248" stroke="#171717" stroke-width="3" stroke-linecap="round" stroke-linejoin="round"/>
<path d="M776.757 821.476C751.564 768.061 700.297 666.858 642.057 631.961" stroke="#171717" stroke-width="3" stroke-linecap="round" stroke-linejoin="round"/>
<path d="M611.9 685.6C611.9 685.6 702.74 784.954 742.933 852.639C750.198 864.851 755.805 876.034 758.933 885.418C765.408 904.845 779.869 914.638 796.678 917.836C832.978 924.752 880.222 900.957 881.671 877.183C882.391 865.291 878.913 858.455 874.017 854.608C864.593 847.193 849.932 850.861 849.932 850.861C849.932 850.861 799.132 863.552 792.79 855.088C791.151 852.899 785.535 840.098 776.761 821.488" stroke="#171717" stroke-width="3" stroke-linecap="round" stroke-linejoin="round"/>
<path d="M743.878 852.077C743.878 852.077 769.178 854.655 776.756 821.487V821.477" stroke="#171717" stroke-width="3" stroke-linecap="round" stroke-linejoin="round"/>
<path d="M445.365 229.378C445.365 229.378 454.009 232.066 454.359 228.518C454.709 224.97 450.659 187.236 450.659 187.236C450.659 187.236 468.647 181.236 477.991 185.117" stroke="#171717" stroke-width="3" stroke-linecap="round" stroke-linejoin="round"/>
<path d="M461.685 199.579C462.996 198.77 464.506 198.342 466.047 198.342C467.588 198.342 469.098 198.77 470.41 199.579" stroke="#171717" stroke-width="3" stroke-linecap="round" stroke-linejoin="round"/>
<path d="M428.087 198.329C428.087 198.329 434.263 193.403 439.369 197.46" stroke="#171717" stroke-width="3" stroke-linecap="round" stroke-linejoin="round"/>
<path d="M422.62 245.607C422.62 245.607 428.62 253.722 436.901 251.783" stroke="#171717" stroke-width="3" stroke-linecap="round" stroke-linejoin="round"/>
<path d="M265.174 194.052C265.175 200.062 263.394 205.937 260.056 210.935C256.717 215.932 251.972 219.828 246.419 222.128C240.867 224.428 234.757 225.031 228.862 223.858C222.968 222.686 217.553 219.792 213.304 215.542C209.054 211.292 206.16 205.877 204.988 199.983C203.816 194.088 204.418 187.978 206.718 182.426C209.019 176.874 212.914 172.128 217.912 168.79C222.91 165.452 228.785 163.671 234.795 163.672C238.785 163.672 242.735 164.458 246.421 165.984C250.107 167.511 253.456 169.749 256.277 172.57C259.098 175.391 261.335 178.74 262.862 182.426C264.389 186.112 265.174 190.062 265.174 194.052Z" stroke="#171717" stroke-width="3" stroke-linecap="round" stroke-linejoin="round"/>
<path d="M243.149 151.868L250.214 123.688" stroke="#171717" stroke-width="3" stroke-linecap="round" stroke-linejoin="round"/>
<path d="M220.574 232.326L211.41 265.824" stroke="#171717" stroke-width="3" stroke-linecap="round" stroke-linejoin="round"/>
<path d="M196.59 209.57L182.479 217.075" stroke="#171717" stroke-width="3" stroke-linecap="round" stroke-linejoin="round"/>
<path d="M196.591 181.53L135.931 168.129" stroke="#171717" stroke-width="3" stroke-linecap="round" stroke-linejoin="round"/>
<path d="M211.41 160.713L200.827 149.471" stroke="#171717" stroke-width="3" stroke-linecap="round" stroke-linejoin="round"/>
<path d="M269.951 168.129L282.373 163.672" stroke="#171717" stroke-width="3" stroke-linecap="round" stroke-linejoin="round"/>
<path d="M276.167 208.322L302.4 214.747" stroke="#171717" stroke-width="3" stroke-linecap="round" stroke-linejoin="round"/>
<path d="M253.122 232.326L260.078 242.999" stroke="#171717" stroke-width="3" stroke-linecap="round" stroke-linejoin="round"/>
<path d="M481.341 487.738C481.341 487.738 549.067 468.87 554.703 536.595C555.246 542.875 555.4 549.184 555.163 555.483C553 609.937 518.857 635.11 475.815 649.101C428.087 664.621 386.815 668.148 356.834 654.747C350.668 651.989 342.763 648.761 333.689 645.653C298.642 633.671 246.157 623.618 209.122 650.52" stroke="#171717" stroke-width="3" stroke-linecap="round" stroke-linejoin="round"/>
<path d="M206.623 648.87C207.746 649.709 208.728 650.721 209.531 651.87C215.038 659.705 211.28 672.27 201.217 682.66C198.788 685.163 196.128 687.431 193.272 689.435C177.492 700.535 159.205 701.707 152.419 692.064C145.633 682.421 152.909 665.591 168.678 654.498C169.598 653.849 170.527 653.239 171.456 652.67C184.628 644.483 198.948 643.054 206.623 648.87Z" stroke="#171717" stroke-width="3" stroke-linecap="round" stroke-linejoin="round"/>
<path d="M461.534 408.969C461.534 408.969 467.351 410.558 475.815 405.791C484.279 401.024 480.402 391.86 494.515 391.511C508.628 391.162 513.732 407.911 525.724 405.791C537.716 403.671 540.844 395.508 540.844 395.508" stroke="#171717" stroke-width="3" stroke-linecap="round" stroke-linejoin="round"/>
<path d="M465.452 437.949C465.452 437.949 471.368 439.528 479.962 434.771C488.556 430.014 484.619 420.84 498.95 420.48C513.281 420.12 518.477 436.889 530.659 434.771C542.841 432.653 546.009 424.488 546.009 424.488" stroke="#171717" stroke-width="3" stroke-linecap="round" stroke-linejoin="round"/>
<path d="M468.76 466.871C468.76 466.871 474.786 468.46 483.54 463.693C492.294 458.926 488.287 449.762 502.887 449.412C517.487 449.062 522.774 465.812 535.176 463.693C547.578 461.574 550.815 453.41 550.815 453.41" stroke="#171717" stroke-width="3" stroke-linecap="round" stroke-linejoin="round"/>
<path d="M467.82 501.318L465.822 482.98L470.129 482.29L475.815 481.391L478.703 499.029L472.357 500.568L469.239 501.318" stroke="#171717" stroke-width="3" stroke-linecap="round" stroke-linejoin="round"/>
<path d="M348.569 448.793C348.569 448.793 358.782 449.293 360.361 458.116C361.92 466.741 352.117 472.137 351.687 472.377H351.677" stroke="#171717" stroke-width="3" stroke-linecap="round" stroke-linejoin="round"/>
<path d="M142.677 752.111C142.677 752.111 87.0126 819.111 90.1906 842.741C93.3686 866.371 115.584 876.948 142.397 864.257" stroke="#171717" stroke-width="3" stroke-linecap="round" stroke-linejoin="round"/>
<path d="M796.673 917.822C796.673 917.822 856.983 909.047 867.556 888.591C878.129 868.135 874.012 854.604 874.012 854.604" stroke="#171717" stroke-width="3" stroke-linecap="round" stroke-linejoin="round"/>
<path d="M171.456 652.658V652.668C171.476 653.077 172.046 664.64 179.571 673.284C183.971 678.351 190.754 682.418 201.217 682.658" stroke="#171717" stroke-width="3" stroke-linecap="round" stroke-linejoin="round"/>
<path d="M206.623 648.871C206.623 648.871 186.417 656.786 179.571 673.285" stroke="#171717" stroke-width="3" stroke-linecap="round" stroke-linejoin="round"/>
<path d="M253.163 811.566C267.522 810.151 281.152 804.566 292.376 795.5" stroke="#171717" stroke-width="3" stroke-linecap="round" stroke-linejoin="round"/>
<path d="M414.212 731.168L411.861 719.881" stroke="#171717" stroke-width="3" stroke-linecap="round" stroke-linejoin="round"/>
<path d="M341.32 682.729L349.785 679.438" stroke="#171717" stroke-width="3" stroke-linecap="round" stroke-linejoin="round"/>
<path d="M406.193 643.231L404.637 633.85" stroke="#171717" stroke-width="3" stroke-linecap="round" stroke-linejoin="round"/>
<path d="M453.714 602.29L466.423 600.99" stroke="#171717" stroke-width="3" stroke-linecap="round" stroke-linejoin="round"/>
<path d="M383.644 613.128L382.234 606.074" stroke="#171717" stroke-width="3" stroke-linecap="round" stroke-linejoin="round"/>
<path d="M522.239 665.94L534.09 660.992" stroke="#171717" stroke-width="3" stroke-linecap="round" stroke-linejoin="round"/>
<path d="M583.641 681.733C581.84 677.542 581.717 672.82 583.299 668.541" stroke="#171717" stroke-width="3" stroke-linecap="round" stroke-linejoin="round"/>
<path d="M600.438 621.557C604.694 620.981 609.024 621.322 613.138 622.557" stroke="#171717" stroke-width="3" stroke-linecap="round" stroke-linejoin="round"/>
<path d="M559.817 615.553C558.498 612.192 558.559 608.446 559.986 605.129" stroke="#171717" stroke-width="3" stroke-linecap="round" stroke-linejoin="round"/>
<path d="M518.651 582.051L527.816 590.768" stroke="#171717" stroke-width="3" stroke-linecap="round" stroke-linejoin="round"/>
<path d="M133.943 669.576C131.135 672.598 129.405 676.463 129.021 680.57C128.637 684.677 129.621 688.795 131.82 692.285" stroke="#171717" stroke-width="3" stroke-linecap="round" stroke-linejoin="round"/>
<path d="M236.439 624.406C240.439 620.753 245.267 618.129 250.507 616.759C255.747 615.389 261.241 615.315 266.516 616.543" stroke="#171717" stroke-width="3" stroke-linecap="round" stroke-linejoin="round"/>
<path d="M458.405 423.608L456.5 408.562" stroke="#171717" stroke-width="3" stroke-linecap="round" stroke-linejoin="round"/>
<path d="M462.182 451.824L461.242 442.418" stroke="#171717" stroke-width="3" stroke-linecap="round" stroke-linejoin="round"/>
<path d="M710.264 112.733C711.967 94.0046 706.192 75.3631 694.2 60.877" stroke="#171717" stroke-width="3" stroke-linecap="round" stroke-linejoin="round"/>
<path d="M721.827 88.769C721.738 85.4328 720.738 82.1845 718.934 79.377" stroke="#171717" stroke-width="3" stroke-linecap="round" stroke-linejoin="round"/>
<path d="M259.895 393.963C263.815 378.466 270.576 363.831 279.834 350.801" stroke="#171717" stroke-width="3" stroke-linecap="round" stroke-linejoin="round"/>
<path d="M575.686 485.18L570.413 451.146C569.966 448.969 569.843 446.737 570.048 444.523" stroke="#171717" stroke-width="3" stroke-linecap="round" stroke-linejoin="round"/>
<path d="M732.048 883.326C723.453 857.604 710.647 833.487 694.153 811.959" stroke="#171717" stroke-width="3" stroke-linecap="round" stroke-linejoin="round"/>
<path d="M826.611 855.77C820.391 866.428 817.866 878.842 819.43 891.083" stroke="#171717" stroke-width="3" stroke-linecap="round" stroke-linejoin="round"/>
<path d="M843.594 852.273C838.255 863.207 836.525 875.552 838.651 887.532" stroke="#171717" stroke-width="3" stroke-linecap="round" stroke-linejoin="round"/>
<path d="M157.248 812.288C153.214 810.854 149.574 808.489 146.625 805.384C143.676 802.28 141.5 798.524 140.273 794.422" stroke="#171717" stroke-width="3" stroke-linecap="round" stroke-linejoin="round"/>
<path d="M149.433 834.329C144.256 832.939 139.514 830.262 135.648 826.548C131.783 822.834 128.919 818.203 127.322 813.086" stroke="#171717" stroke-width="3" stroke-linecap="round" stroke-linejoin="round"/>
<path d="M366.787 157.391C364.639 153.133 363.58 148.407 363.706 143.639C363.833 138.87 365.14 134.207 367.511 130.068" stroke="#171717" stroke-width="3" stroke-linecap="round" stroke-linejoin="round"/>
<path d="M502.14 107.337L508.493 96.0527" stroke="#171717" stroke-width="3" stroke-linecap="round" stroke-linejoin="round"/>
<path d="M511.321 105.234L499.464 95.8926" stroke="#171717" stroke-width="3" stroke-linecap="round" stroke-linejoin="round"/>
<path d="M453.481 67.1356V55.8496" stroke="#171717" stroke-width="3" stroke-linecap="round" stroke-linejoin="round"/>
<path d="M445 62.1133L459.812 59.2812" stroke="#171717" stroke-width="3" stroke-linecap="round" stroke-linejoin="round"/>
<path d="M634.13 378.352C660.894 365.001 682.421 343.077 695.282 316.074" stroke="#171717" stroke-width="3" stroke-linecap="round" stroke-linejoin="round"/>
<path d="M194.672 392.968L184.779 381.699" stroke="#171717" stroke-width="3" stroke-linecap="round" stroke-linejoin="round"/>
<path d="M183.338 392.377C187.131 389.741 190.058 386.04 191.75 381.742" stroke="#171717" stroke-width="3" stroke-linecap="round" stroke-linejoin="round"/>
<path d="M122.937 405.5C109.858 415.324 101.217 431.6 102.66 447.891C104.103 464.182 116.76 479.448 132.936 481.873C138.605 482.722 144.743 481.957 149.365 478.567C153.987 475.177 156.621 468.801 154.599 463.438C151.621 455.538 139.673 454.017 133.413 459.686C127.153 465.355 126.462 475.406 129.879 483.129C133.296 490.852 139.995 496.619 146.979 501.373C153.963 506.127 161.479 510.183 167.733 515.856C172.903 520.543 177.352 527.212 176.033 534.064C174.584 541.584 166.322 546.332 158.669 546.026C151.016 545.72 144.06 541.514 138.124 536.673" stroke="#171717" stroke-width="3" stroke-linecap="round" stroke-linejoin="round"/>
<path d="M118.446 510.076C115.674 508.416 113.411 506.024 111.907 503.164" stroke="#171717" stroke-width="3" stroke-linecap="round" stroke-linejoin="round"/>
<path d="M110.606 512.224L117.862 501.783" stroke="#171717" stroke-width="3" stroke-linecap="round" stroke-linejoin="round"/>
<path d="M171.314 448.767L179.074 438.891" stroke="#171717" stroke-width="3" stroke-linecap="round" stroke-linejoin="round"/>
<path d="M177.851 448.593L170.068 440.15" stroke="#171717" stroke-width="3" stroke-linecap="round" stroke-linejoin="round"/>
<path d="M745.976 365.346C756.905 392.492 756.941 422.808 746.076 449.98C741.908 460.264 735.023 470.842 724.207 473.319C714.139 475.624 703.642 469.9 697.119 461.893C691.344 454.806 688.145 443.875 693.933 436.799C698.662 431.017 707.422 430.376 714.633 432.331C730.753 436.703 742.657 451.487 746.899 467.642C751.141 483.797 748.689 501.054 743.608 516.965C740.101 527.943 733.292 540.119 721.813 541.135C714.227 541.807 707.172 537.195 699.602 536.368C688.464 535.152 677.23 543.262 674.314 554.081C671.398 564.9 676.668 577.216 686.202 583.102C695.736 588.988 708.702 588.367 717.992 582.11" stroke="#171717" stroke-width="3" stroke-linecap="round" stroke-linejoin="round"/>
<path d="M662.284 538.354L672.159 528.479" stroke="#171717" stroke-width="3" stroke-linecap="round" stroke-linejoin="round"/>
<path d="M670.749 536.237C668.852 532.508 666.01 529.341 662.508 527.052L664.4 525.652" stroke="#171717" stroke-width="3" stroke-linecap="round" stroke-linejoin="round"/>
<path d="M772.306 425.457L781.481 418.408" stroke="#171717" stroke-width="3" stroke-linecap="round" stroke-linejoin="round"/>
<path d="M779.5 426.825C777.01 422.978 775.072 418.801 773.741 414.416" stroke="#171717" stroke-width="3" stroke-linecap="round" stroke-linejoin="round"/>
<path d="M508.037 65.0901L501.61 72.1831C501.416 72.3973 501.161 72.547 500.88 72.6118C500.598 72.6767 500.304 72.6537 500.036 72.5459C499.768 72.4382 499.539 72.2508 499.381 72.0091C499.222 71.7674 499.142 71.4829 499.15 71.1941L499.421 61.6261C499.429 61.347 499.354 61.0718 499.206 60.8352C499.057 60.5987 498.842 60.4115 498.587 60.2971L489.855 56.3761C489.592 56.2579 489.371 56.0618 489.222 55.8141C489.073 55.5664 489.004 55.2791 489.024 54.9909C489.043 54.7027 489.151 54.4275 489.332 54.2022C489.513 53.977 489.758 53.8125 490.035 53.7311L499.219 51.0311C499.487 50.9527 499.725 50.7969 499.904 50.5834C500.083 50.3698 500.195 50.1081 500.225 49.8311L501.255 40.3151C501.286 40.0277 501.404 39.7567 501.594 39.5385C501.784 39.3204 502.036 39.1657 502.316 39.0953C502.596 39.0249 502.892 39.0421 503.162 39.1448C503.432 39.2474 503.664 39.4304 503.827 39.6691L509.227 47.5691C509.385 47.7996 509.607 47.9782 509.867 48.0823C510.126 48.1864 510.41 48.2114 510.683 48.1541L520.052 46.1931C520.335 46.1338 520.629 46.1625 520.895 46.2755C521.161 46.3885 521.386 46.5803 521.54 46.8251C521.693 47.0699 521.768 47.3558 521.754 47.6444C521.74 47.933 521.638 48.2104 521.461 48.4391L515.618 56.0211C515.448 56.2422 515.347 56.5089 515.328 56.7874C515.308 57.066 515.372 57.3439 515.511 57.5861L520.271 65.8911C520.415 66.1417 520.478 66.4302 520.453 66.7179C520.428 67.0056 520.315 67.2787 520.13 67.5003C519.945 67.7219 519.696 67.8814 519.417 67.9574C519.139 68.0333 518.843 68.0221 518.571 67.9251L509.555 64.7101C509.293 64.617 509.009 64.6034 508.739 64.671C508.469 64.7386 508.225 64.8844 508.037 65.0901V65.0901Z" fill="#171717"/>
<path d="M784.555 532.15L780.345 538.45C780.218 538.64 780.035 538.787 779.822 538.87C779.609 538.954 779.376 538.97 779.153 538.917C778.931 538.863 778.73 538.743 778.577 538.572C778.425 538.401 778.329 538.188 778.302 537.961L777.402 530.434C777.375 530.214 777.285 530.007 777.141 529.839C776.997 529.671 776.807 529.549 776.594 529.489L769.294 527.434C769.074 527.372 768.878 527.243 768.733 527.067C768.588 526.89 768.5 526.673 768.482 526.445C768.464 526.217 768.516 525.989 768.632 525.791C768.747 525.593 768.92 525.436 769.128 525.34L776.009 522.158C776.209 522.065 776.378 521.915 776.493 521.726C776.609 521.537 776.666 521.319 776.657 521.098L776.357 513.523C776.348 513.294 776.409 513.068 776.532 512.876C776.655 512.683 776.835 512.533 777.046 512.445C777.257 512.357 777.49 512.336 777.714 512.385C777.937 512.434 778.14 512.55 778.296 512.718L783.449 518.278C783.599 518.44 783.794 518.554 784.009 518.606C784.225 518.657 784.45 518.644 784.658 518.567L791.769 515.942C791.983 515.863 792.217 515.851 792.438 515.909C792.66 515.966 792.858 516.09 793.007 516.264C793.156 516.438 793.247 516.653 793.27 516.881C793.293 517.108 793.245 517.337 793.134 517.537L789.434 524.156C789.326 524.349 789.278 524.57 789.296 524.791C789.314 525.011 789.396 525.221 789.534 525.395L794.234 531.347C794.376 531.527 794.459 531.746 794.473 531.975C794.486 532.204 794.429 532.431 794.309 532.627C794.189 532.822 794.012 532.976 793.802 533.068C793.592 533.159 793.359 533.184 793.134 533.139L785.697 531.669C785.48 531.628 785.256 531.651 785.053 531.737C784.85 531.822 784.677 531.966 784.555 532.15V532.15Z" fill="#171717"/>
<g opacity="0.1">
<path d="M117.5 875.93C123.224 880.651 132.67 872.502 136.686 868.453C142.813 862.36 147.456 854.94 150.256 846.765C153.064 838.598 153.344 829.899 154.584 821.424C155.684 813.93 157.909 806.319 165.445 803.066C173.092 799.766 182.167 800.586 190.286 800.345C200.216 800.017 210.117 799.08 219.933 797.539C239.194 794.541 258.004 789.146 275.927 781.48C296.156 772.815 315.099 761.414 332.227 747.596C335.473 744.996 334.888 739.51 332.227 736.796C329.074 733.573 324.627 734.238 321.422 736.796C291.292 760.81 254.707 776.558 216.739 782.802C207.428 784.307 198.028 785.192 188.6 785.45C179.635 785.718 170.209 785.318 161.644 788.426C142.688 795.302 140.16 813.484 138.675 831.173C137.997 840.302 135.033 849.113 130.058 856.797C127.485 860.844 123.78 864.529 120.48 867.997C119.094 869.453 114.621 873.559 117.498 875.933L117.5 875.93Z" fill="#171717"/>
</g>
<g opacity="0.1">
<path d="M421.629 769.79C429.902 766.656 433.703 755.544 437.746 748.34C442.284 740.252 446.57 732.023 450.926 723.834C459.954 706.862 468.866 689.83 477.662 672.74C482.254 663.861 468.862 655.985 464.224 664.886C455.342 681.943 446.542 699.04 437.824 716.177C433.63 724.465 429.362 732.718 425.354 741.098C421.854 748.412 414.478 758.573 416.668 766.974C417.181 768.939 419.603 770.557 421.627 769.79H421.629Z" fill="#171717"/>
</g>
<g opacity="0.1">
<path d="M613.787 686.208C617.52 695.243 625.887 702.394 632.638 709.285C639.783 716.58 646.86 723.94 653.871 731.364C667.653 745.995 681.262 760.756 693.948 776.364C706.496 791.677 717.928 807.872 728.156 824.822C738.045 841.355 745.663 858.657 753.214 876.322C760.484 893.333 770.622 911.017 789.774 916.076C799.7 918.698 803.936 903.321 794.011 900.708C779.321 896.84 772.356 881.065 766.926 868.274C759.426 850.597 751.726 833.332 741.841 816.82C721.668 783.138 696.062 752.959 669.103 724.556C661.49 716.535 653.612 708.756 645.73 701.003C638.169 693.564 630.085 683.903 620.072 679.923C616.648 678.563 612.359 682.751 613.787 686.209V686.208Z" fill="#171717"/>
</g>
<g opacity="0.1">
<path d="M300.524 545.558C296.943 558.265 309.002 570.758 319.51 576.258C321.355 577.28 323.523 577.552 325.564 577.017C327.604 576.482 329.359 575.181 330.465 573.385C330.816 572.785 331.088 572.142 331.272 571.472C332.194 568.321 330.717 563.916 327.593 562.43C323.027 560.392 318.925 557.442 315.54 553.76C314.073 552.082 312.577 550.393 311.185 548.652C309.746 546.929 308.115 545.377 306.322 544.026C304.341 542.438 301.29 542.841 300.522 545.557L300.524 545.558Z" fill="#171717"/>
</g>
<g opacity="0.1">
<path d="M486.283 177.337C472.032 175.155 457.52 176.192 443.308 178.199C431.782 179.827 417.783 182.358 414.037 195.305C412.196 201.667 412.895 209.115 412.71 215.665C412.486 223.58 412.474 231.499 412.41 239.416C412.349 246.674 412.342 253.932 412.389 261.188C412.427 268.522 410.999 277.771 413.341 284.748C416.136 293.075 429.583 289.003 426.313 281.172L426.195 280.704C426.184 279.817 425.942 278.949 425.492 278.184C425.043 277.42 424.402 276.785 423.633 276.344C422.864 275.903 421.993 275.67 421.107 275.668C420.22 275.666 419.348 275.895 418.577 276.333L419.827 276.233L426.313 284.747C428.487 278.908 427.6 271.347 427.839 265.147C428.093 258.547 428.384 251.954 428.549 245.354C428.871 232.487 429.168 219.63 429.234 206.754C429.256 202.412 428.508 198.735 432.558 196.271C436.764 193.713 442.376 192.971 447.104 191.953C459.622 189.265 472.256 188.509 484.952 187.187C490.052 186.656 492.352 178.263 486.286 177.333L486.283 177.337Z" fill="#171717"/>
</g>
<g opacity="0.1">
<path d="M392.646 197.6C387.346 197.479 382.073 199.513 376.804 200.08C371.411 200.66 365.539 200.999 360.186 199.98V210.399C373.867 206.975 386.828 199.219 399.857 193.719C413.457 187.979 427.298 182.657 441.251 177.845C468.966 168.309 497.432 161.117 526.351 156.345C530.951 155.583 533.517 149.89 532.375 145.735C531.036 140.861 526.375 138.935 521.766 139.711C492.261 144.63 463.232 152.07 434.998 161.948C420.919 166.872 407.101 172.513 393.598 178.848C380.414 185.048 365.586 191.319 354.939 201.365C351.505 204.605 354.165 210.601 358.759 210.588C365.073 210.569 371.182 210.718 377.468 209.829C383.105 209.029 389.92 208.146 394.547 204.58C397.347 202.42 396.686 197.68 392.655 197.592L392.646 197.6Z" fill="#171717"/>
</g>
<g opacity="0.1">
<path d="M403.256 168.01C401.034 161.71 397.379 156.303 397.144 149.416C396.972 146.315 397.199 143.205 397.821 140.161C398.721 136.212 400.501 132.847 397.746 129.079C395.999 126.689 393.439 125.343 390.441 126.106L389.601 126.32C388.312 126.677 387.138 127.362 386.193 128.307C385.248 129.252 384.563 130.426 384.206 131.714C380.471 145.324 382.688 165.501 395.475 173.992C399.213 176.474 404.775 172.324 403.256 168.01V168.01Z" fill="#171717"/>
</g>
</g>
<defs>
<linearGradient id="paint0_linear_510_1395" x1="434.131" y1="105.518" x2="434.131" y2="178.481" gradientUnits="userSpaceOnUse">
<stop stop-color="#4A9FFF"/>
<stop offset="1" stop-color="#2A67F7"/>
</linearGradient>
<linearGradient id="paint1_linear_510_1395" x1="808.866" y1="821.482" x2="808.866" y2="917.828" gradientUnits="userSpaceOnUse">
<stop stop-color="#4A9FFF"/>
<stop offset="1" stop-color="#2A67F7"/>
</linearGradient>
<linearGradient id="paint2_linear_510_1395" x1="443.564" y1="139.484" x2="443.564" y2="213.237" gradientUnits="userSpaceOnUse">
<stop stop-color="#4A9FFF"/>
<stop offset="1" stop-color="#2A67F7"/>
</linearGradient>
<linearGradient id="paint3_linear_510_1395" x1="503.808" y1="391.506" x2="503.808" y2="438.205" gradientUnits="userSpaceOnUse">
<stop stop-color="#4A9FFF"/>
<stop offset="1" stop-color="#2A67F7"/>
</linearGradient>
<linearGradient id="paint4_linear_510_1395" x1="444.427" y1="555.482" x2="444.427" y2="663.039" gradientUnits="userSpaceOnUse">
<stop stop-color="#4A9FFF"/>
<stop offset="1" stop-color="#2A67F7"/>
</linearGradient>
<linearGradient id="paint5_linear_510_1395" x1="469.232" y1="554.664" x2="469.232" y2="769.501" gradientUnits="userSpaceOnUse">
<stop stop-color="#4A9FFF"/>
<stop offset="1" stop-color="#2A67F7"/>
</linearGradient>
<linearGradient id="paint6_linear_510_1395" x1="139.077" y1="752.111" x2="139.077" y2="869.678" gradientUnits="userSpaceOnUse">
<stop stop-color="#4A9FFF"/>
<stop offset="1" stop-color="#2A67F7"/>
</linearGradient>
<clipPath id="clip0_510_1395">
<rect width="807" height="882" fill="white" transform="translate(77 39)"/>
</clipPath>
</defs>
</svg>
