<svg width="960" height="960" viewBox="0 0 960 960" fill="none" xmlns="http://www.w3.org/2000/svg">
<g clip-path="url(#clip0_162_2211)">
<g clip-path="url(#clip1_162_2211)">
<path fill-rule="evenodd" clip-rule="evenodd" d="M343.8 592.266C345.491 584.097 343.426 575.469 339.491 568.113C335.546 560.758 329.837 554.5 323.882 548.666C300.03 525.329 271.445 507.386 240.059 496.052L238.883 496.512C244.667 511.031 258.865 530.96 278.196 550.291C281.799 553.894 285.427 557.316 289.027 560.534C303.183 573.203 317.06 582.794 328.308 588.022C334.359 590.834 339.641 592.394 343.8 592.48V592.266ZM307.353 545.133C306.62 544.637 305.623 544.828 305.126 545.561C304.629 546.294 304.82 547.291 305.554 547.788C317.803 556.09 327.111 568.055 332.145 581.97C332.447 582.803 333.366 583.234 334.199 582.933C335.031 582.631 335.462 581.712 335.161 580.879C329.897 566.328 320.163 553.815 307.353 545.133Z" fill="white"/>
<path fill-rule="evenodd" clip-rule="evenodd" d="M465.572 747.099C506.499 702.501 533.02 646.594 541.67 586.685L541.935 586.728C549.525 597.687 557.319 608.835 565.226 620.145C613.084 688.598 665.081 762.97 700.792 837.138L700.855 837.268C709.393 855.006 719.006 874.98 730.397 881.113C738.091 885.251 746.627 885.166 755.191 882.899C765.624 880.141 776.115 874.143 785.224 868.626C799.925 859.731 815.054 847.895 820.346 832.146C821.265 829.43 821.869 826.617 822.146 823.764C823.899 805.488 811.839 789.108 800.527 774.664C727.403 681.272 659.034 584.63 595.418 484.738C595.225 484.77 595.033 484.813 594.851 484.856C566.859 490.878 537.691 497.131 508.448 503.4C480.058 509.486 451.598 515.587 424.073 521.507L424.126 521.764C429.911 542.579 431.187 564.389 427.869 585.737C424.552 607.085 416.718 627.479 404.89 645.558C393.062 663.636 377.512 678.983 359.28 690.572C341.048 702.162 320.552 709.727 299.162 712.764C297.445 713.008 295.711 713.226 293.972 713.445C284.971 714.58 275.841 715.73 268.242 720.515C259.774 725.848 254.396 735.115 251.83 744.815C251.756 745.055 251.691 745.28 251.638 745.515C249.136 755.448 249.243 765.84 249.489 776.083C249.767 787.609 250.251 799.295 253.851 810.243C256.556 818.454 261.261 826.291 267.868 831.712C270.072 833.54 272.505 835.071 275.106 836.267C286.589 841.521 299.97 839.532 312.27 836.667C371.218 822.913 424.646 791.698 465.572 747.099ZM591.699 502.57C591.163 501.865 590.158 501.727 589.452 502.263C588.747 502.798 588.609 503.804 589.145 504.509C661.044 599.202 730.086 695.897 796.268 794.593C796.761 795.328 797.757 795.525 798.493 795.032C799.228 794.538 799.425 793.542 798.932 792.807C732.714 694.059 663.637 597.313 591.699 502.57Z" fill="#171717"/>
<path fill-rule="evenodd" clip-rule="evenodd" d="M516.717 259.808H516.535C516.541 257.844 516.288 255.888 515.784 253.99C515.513 252.93 515.035 251.934 514.378 251.059C513.721 250.184 512.898 249.447 511.956 248.89C510.031 247.863 507.732 247.927 505.562 248.013C501.204 248.177 496.849 248.377 492.497 248.613C478.652 249.34 464.838 250.527 451.281 253.307C450.886 253.382 450.501 253.456 450.116 253.542C447.25 254.151 444.235 254.921 442.161 257.006C440.504 258.812 439.518 261.133 439.37 263.581C439.227 266.012 439.366 268.452 439.787 270.851L438.6 271.3L433.051 272.59L432.773 272.9L494.515 328.133L495.306 328.828C496.626 326.155 498.369 323.696 501.106 322.744C502.611 322.289 504.22 322.309 505.713 322.803C507.205 323.297 508.509 324.239 509.446 325.502C510.293 326.718 510.824 328.126 510.992 329.598C511.16 331.071 510.96 332.562 510.408 333.938C510.397 333.948 510.397 333.948 510.397 333.959C510.345 334.116 510.281 334.27 510.205 334.419L510.805 334.665C511.533 333.884 512.159 333.088 512.77 332.311C514.017 330.724 515.201 329.217 517.06 328.09C518.412 327.194 519.932 326.582 521.527 326.291C523.122 326.001 524.76 326.038 526.34 326.401C529.452 327.288 532.05 330.282 531.793 333.511C531.729 334.504 531.524 335.483 531.184 336.419C533.43 334.377 536.1 332.881 539 333.8C540.736 334.319 542.227 335.444 543.201 336.972C544.655 339.357 544.42 342.468 543.308 345.034L543.565 345.087C545.395 344.783 547.271 345.198 548.803 346.243C550.334 347.289 551.404 348.885 551.787 350.7C552.578 354.506 551.263 358.437 549.542 361.937C547.807 365.457 545.649 368.753 543.116 371.752L594.297 417.502L594.554 417.213C588.09 387.743 581.618 358.269 575.138 328.793C592.212 335 607.051 344.895 617.851 359.5C637.123 385.556 638.263 415.224 638.891 431.564C639.148 438.256 639.319 442.712 640.614 443.772C642.539 445.341 644.902 447.212 647.66 449.372C655.711 455.638 667.194 464.287 681.243 474.808C683.504 476.504 685.837 478.251 688.243 480.047L688.264 480.015C704.916 444.175 707.02 403.275 694.135 365.916C681.251 328.556 654.38 297.649 619.175 279.695C587.859 263.732 551.861 259.028 516.717 259.808ZM599.363 277.005C598.553 276.648 597.606 277.016 597.249 277.826C596.892 278.637 597.26 279.583 598.07 279.94C627.261 292.798 651.713 314.442 668.02 341.855C684.328 369.268 691.678 401.085 689.047 432.873C688.974 433.756 689.63 434.531 690.513 434.604C691.395 434.677 692.17 434.02 692.243 433.138C694.929 400.685 687.425 368.202 670.776 340.215C654.128 312.229 629.164 290.133 599.363 277.005Z" fill="white"/>
<path fill-rule="evenodd" clip-rule="evenodd" d="M427.066 147.663C427.445 146.588 427.929 145.553 428.509 144.573C432.487 137.87 440.644 134.993 448.279 133.466C450.289 133.059 452.31 132.718 454.341 132.418L454.298 132.151C471.555 124.763 488.416 118.06 505.533 112.051L505.405 111.698C500.677 107.927 498.999 101.724 497.396 95.7943C497.208 95.0992 497.021 94.4079 496.83 93.7246C496.338 91.9606 495.718 90.0896 494.264 88.9666C492.201 87.3626 489.261 87.8226 486.716 88.3996C461.507 94.0905 437.149 103.047 414.258 115.042L414.611 115.716C418.502 126.268 422.394 136.821 426.286 147.374L427.066 147.663ZM489.903 94.0018C489.435 93.2498 488.446 93.0193 487.694 93.487C486.942 93.9547 486.712 94.9435 487.179 95.6955C489.782 99.8807 491.504 104.553 492.238 109.427C492.37 110.302 493.187 110.905 494.063 110.773C494.939 110.641 495.542 109.824 495.41 108.949C494.61 103.644 492.736 98.5575 489.903 94.0018Z" fill="white"/>
<path fill-rule="evenodd" clip-rule="evenodd" d="M164.608 165.839C166.47 163.015 168.581 160.364 170.916 157.916C179.234 149.213 190.364 143.429 202.101 140.724C213.912 138.176 226.128 138.15 237.95 140.649L238.089 140.617C237.774 139.194 237.602 137.744 237.576 136.287C237.626 130.117 239.691 124.132 243.456 119.244C246.652 114.936 251.196 111.29 256.307 109.964L256.2 109.515C236.189 90.4683 209.608 79.8654 181.982 79.9098C170.467 79.9888 158.888 81.9628 148.389 86.6888C137.89 91.4148 128.535 98.9628 122.526 108.778C116.346 118.882 114.016 130.749 113.759 142.692H114.304C117.169 137.955 124.429 134.94 126.888 141.505C130.103 143.179 133.599 139.779 136.995 136.477C141.301 132.291 145.446 128.26 148.656 134.919C149.796 155.455 154.397 154.18 158.357 153.083C161.858 152.113 164.858 151.281 164.522 165.786L164.608 165.839ZM195.029 86.0654C194.144 86.0338 193.401 86.7257 193.369 87.6107C193.338 88.4958 194.03 89.2388 194.915 89.2703C209.354 89.785 223.141 95.4181 233.809 105.163C234.463 105.76 235.477 105.714 236.075 105.06C236.672 104.406 236.626 103.392 235.972 102.795C224.742 92.537 210.229 86.6071 195.029 86.0654Z" fill="#171717"/>
<path d="M555.592 101.4C556.201 102.833 555.41 104.533 554.362 105.687C553.258 106.783 551.979 107.686 550.577 108.36C541.232 113.448 531.895 118.541 522.565 123.638L521.293 123.595C521.493 119.595 518.993 113.588 510.762 118.42C507.349 120.442 503.806 122.234 500.156 123.787C485.808 129.887 469.813 130.052 454.342 132.415L454.299 132.148C471.555 124.76 488.416 118.056 505.534 112.048C518.888 107.333 532.392 103.048 546.366 99.1537C548.065 98.6847 554.106 97.8717 555.592 101.4Z" fill="white"/>
<path d="M515.84 133.539C517.925 131.582 520.17 129.669 522.929 128.995C525.955 128.257 529.75 129.658 530.499 132.684C531.087 135.025 529.699 137.431 527.976 139.12C523.122 143.835 515.876 144.829 509.159 145.578C508.159 145.696 507.149 145.803 506.144 145.92C489.344 147.802 472.544 149.691 455.744 151.587C449.778 152.25 443 153.405 439.792 158.487C437.13 162.721 437.953 168.187 438.84 173.113C440.476 182.093 442.03 191.085 443.502 200.088L442.583 200.238C442.593 201.789 442.27 203.324 441.638 204.74C441.006 206.156 440.077 207.421 438.916 208.449C437.725 209.446 436.256 210.052 434.709 210.186C433.161 210.32 431.61 209.975 430.266 209.197C427.679 207.508 426.727 203.541 428.63 201.103C427.294 202.889 425.872 204.738 423.84 205.679C421.808 206.62 419.007 206.267 417.895 204.332C416.783 202.397 417.788 199.991 418.708 197.96C423.282 187.816 425.658 176.82 425.679 165.693C425.69 159.642 425.079 153.237 427.069 147.667C427.449 146.592 427.932 145.557 428.512 144.577C432.489 137.877 440.647 134.997 448.281 133.468C450.291 133.062 452.312 132.72 454.343 132.42C469.814 130.057 485.809 129.897 500.157 123.792C503.807 122.239 507.35 120.446 510.763 118.425C519 113.588 521.5 119.6 521.293 123.6C521.264 124.247 521.142 124.887 520.929 125.5C519.865 128.531 518.121 131.278 515.829 133.529L515.84 133.539Z" fill="#171717"/>
<path d="M524.03 386.269L603.544 456.535L603.074 457.07C603.855 460.63 604.635 463.122 605.415 466.682C606.441 471.376 607.307 476.818 604.239 480.517C602.111 483.072 598.69 484.002 595.418 484.74C595.226 484.772 595.033 484.815 594.851 484.858C539.682 496.726 479.951 509.492 424.073 521.509C419.422 522.513 414.796 523.508 410.195 524.492C409.511 512.881 408.816 502.292 408.131 490.717C442.836 466.832 475.114 439.386 507.254 412.048C511.071 408.798 515.145 405.098 515.807 400.137C516.288 396.513 514.855 393.155 512.728 390.098L513.787 389.788C517.155 388.526 520.544 387.265 523.826 385.811L524.03 386.269Z" fill="white"/>
<path d="M482.749 360.951C486.277 361.935 489.068 364.751 491.634 367.419C497.034 373.053 502.43 378.684 507.821 384.312C509.601 386.113 511.241 388.046 512.728 390.096C514.856 393.154 516.288 396.511 515.807 400.135C515.144 405.096 511.071 408.795 507.254 412.046C475.115 439.385 442.837 466.83 408.131 490.715C398.241 497.536 388.141 504.029 377.831 510.195C370.561 514.525 361.783 518.77 353.989 515.487C347.873 512.921 344.431 506.495 341.747 500.422C324.57 461.533 318.359 418.687 323.785 376.522C326.715 354.022 333.354 331.253 348.012 313.954C359 301 373.929 291.838 389.667 285.423C394.5 283.445 398.349 281.713 403.331 280.152L403.652 279.788L485.369 351.968L485.969 352.203C484.964 354.833 483.977 357.47 483.007 360.115L482.749 360.951Z" fill="white"/>
<path d="M350.321 590.8C348.394 592.067 346.099 592.657 343.799 592.479V592.265C345.488 584.097 343.425 575.465 339.49 568.112C335.555 560.759 329.835 554.502 323.88 548.664C300.029 525.327 271.443 507.384 240.057 496.05L238.881 496.51C235.331 487.636 234.925 480.783 238.4 477.31C247.563 468.158 280.226 485.97 311.371 517.115C342.516 548.26 360.328 580.923 351.176 590.086L350.321 590.8Z" fill="#171717"/>
<path d="M328.308 588.021L328.287 588.074C309.309 603.374 290.327 618.674 271.343 633.974C265.206 638.924 258.599 644.074 250.762 644.954C247.64 645.307 243.748 644.398 242.914 641.372C242.134 638.517 244.582 635.898 246.814 633.952C258.372 623.87 269.937 613.787 281.509 603.705C282.895 602.643 284.058 601.318 284.93 599.805C285.355 599.04 285.547 598.168 285.482 597.296C285.418 596.424 285.1 595.59 284.567 594.897C282.589 592.727 279.018 594.042 276.467 595.485C270.64 598.767 264.817 602.049 258.997 605.332C257.552 606.293 255.913 606.924 254.197 607.182C253.335 607.291 252.462 607.121 251.704 606.698C250.946 606.275 250.343 605.62 249.984 604.83C249.3 602.799 250.884 600.778 252.358 599.23C264.333 586.592 276.311 573.961 288.293 561.339L289.031 560.539C303.183 573.2 317.06 582.793 328.308 588.021Z" fill="white"/>
<path d="M164.522 165.786L164.608 165.839C158.578 174.895 154.943 185.576 153.061 196.339C150.591 210.452 150.933 224.896 151.275 239.223L151.075 239.415C129.264 217.144 116.875 186.534 114.21 155.475C113.829 151.224 113.68 146.955 113.761 142.688H114.3C117.165 137.952 124.425 134.937 126.884 141.501C134.176 145.301 142.911 123.001 148.652 134.915C150.805 173.612 165.238 134.876 164.522 165.786Z" fill="white"/>
<path d="M474.207 201.015C477.019 200.481 479.838 199.948 482.664 199.415C480.119 187.193 477.575 174.976 475.03 162.764C481.627 159.468 489.232 158.81 496.296 160.925" stroke="#171717" stroke-width="3.207" stroke-linecap="round" stroke-linejoin="round"/>
<path d="M456.2 174.189C457.594 172.993 459.301 172.221 461.119 171.961C462.937 171.702 464.791 171.966 466.464 172.724" stroke="#171717" stroke-width="3.207" stroke-linecap="round" stroke-linejoin="round"/>
<path d="M495.258 171.88C494.749 171.14 494.049 170.553 493.232 170.18C492.416 169.807 491.513 169.663 490.621 169.763C489.729 169.863 488.88 170.203 488.166 170.747C487.452 171.291 486.899 172.019 486.566 172.853" stroke="#171717" stroke-width="3.207" stroke-linecap="round" stroke-linejoin="round"/>
<path d="M471.265 218.528C469.924 219.206 468.459 219.607 466.959 219.706C465.459 219.805 463.954 219.601 462.535 219.104C461.116 218.608 459.811 217.831 458.7 216.819C457.588 215.807 456.692 214.58 456.065 213.214" stroke="#171717" stroke-width="3.207" stroke-linecap="round" stroke-linejoin="round"/>
<path d="M451.294 253.372C451.294 253.351 451.283 253.329 451.283 253.308C448.995 235.528 446.4 217.787 443.499 200.085C442.024 191.085 440.47 182.093 438.837 173.11C437.95 168.181 437.126 162.718 439.789 158.484C442.997 153.405 449.775 152.251 455.741 151.584C472.541 149.692 489.341 147.803 506.141 145.917C507.141 145.799 508.151 145.692 509.156 145.575C515.87 144.827 523.119 143.832 527.973 139.117C529.694 137.428 531.084 135.022 530.496 132.681C529.748 129.655 525.952 128.255 522.926 128.992C520.168 129.666 517.926 131.579 515.837 133.536L515.228 134.113" stroke="#171717" stroke-width="3.207" stroke-linecap="round" stroke-linejoin="round"/>
<path d="M492.446 247.566C491.364 243.685 490.736 239.692 490.575 235.666C490.419 231.602 491.682 227.611 494.146 224.376C496.327 221.746 499.46 220.076 501.897 217.662C505.34 214.262 507.221 209.515 507.997 204.725C508.608 199.913 508.712 195.05 508.307 190.216C507.601 175.6 506.896 160.988 506.19 146.38" stroke="#171717" stroke-width="3.207" stroke-linecap="round" stroke-linejoin="round"/>
<path d="M514.792 134.4C515.154 134.132 515.501 133.843 515.829 133.534C518.12 131.283 519.865 128.536 520.929 125.505C521.141 124.892 521.264 124.252 521.293 123.605C521.493 119.605 518.993 113.598 510.762 118.43C507.349 120.452 503.806 122.245 500.156 123.797C485.808 129.902 469.813 130.062 454.342 132.425C452.311 132.725 450.29 133.066 448.28 133.473C440.646 135.002 432.488 137.878 428.511 144.582C427.93 145.563 427.447 146.597 427.068 147.672C425.079 153.242 425.689 159.647 425.678 165.698C425.657 176.825 423.281 187.822 418.707 197.965C417.788 199.996 416.793 202.402 417.894 204.337C418.995 206.272 421.818 206.614 423.839 205.684C425.86 204.754 427.292 202.893 428.629 201.108C426.729 203.546 427.677 207.508 430.265 209.202C431.609 209.979 433.16 210.324 434.707 210.191C436.255 210.057 437.723 209.45 438.915 208.454C440.076 207.426 441.004 206.161 441.636 204.745C442.269 203.329 442.591 201.794 442.582 200.243" stroke="#171717" stroke-width="3.207" stroke-linecap="round" stroke-linejoin="round"/>
<path d="M426.286 147.374C422.394 136.821 418.503 126.268 414.611 115.716" stroke="#171717" stroke-width="3.207" stroke-linecap="round" stroke-linejoin="round"/>
<path d="M413.947 115.2C414.054 115.147 414.147 115.093 414.257 115.04C437.148 103.045 461.507 94.0899 486.715 88.3996C489.26 87.8226 492.2 87.3626 494.263 88.9666C495.717 90.0896 496.337 91.9606 496.829 93.7246C498.647 100.236 500.122 107.485 505.404 111.698" stroke="#171717" stroke-width="3.207" stroke-linecap="round" stroke-linejoin="round"/>
<path d="M454.3 132.149C471.556 124.761 488.417 118.057 505.535 112.049C518.889 107.334 532.393 103.049 546.367 99.1549C548.067 98.6849 554.108 97.872 555.594 101.4C556.203 102.833 555.412 104.533 554.364 105.687C553.26 106.783 551.981 107.687 550.579 108.36C541.234 113.449 531.897 118.541 522.567 123.638" stroke="#171717" stroke-width="3.207" stroke-linecap="round" stroke-linejoin="round"/>
<path d="M439.79 270.853C439.369 268.454 439.229 266.014 439.373 263.583C439.521 261.135 440.506 258.814 442.164 257.008C444.238 254.923 447.253 254.153 450.119 253.544C450.504 253.458 450.889 253.384 451.284 253.309C464.841 250.529 478.655 249.342 492.5 248.615C496.852 248.379 501.207 248.179 505.565 248.015C507.735 247.929 510.034 247.865 511.959 248.892C512.901 249.449 513.724 250.186 514.38 251.061C515.037 251.936 515.515 252.932 515.787 253.992C516.289 255.889 516.54 257.845 516.535 259.808C516.546 260.033 516.546 260.246 516.556 260.471" stroke="#171717" stroke-width="3.207" stroke-linecap="round" stroke-linejoin="round"/>
<path d="M403.332 280.154C398.35 281.715 394.501 283.447 389.668 285.425C373.93 291.84 359 301 348.013 313.961C333.355 331.261 326.713 354.033 323.786 376.529C318.36 418.692 324.572 461.537 341.748 500.424C344.432 506.497 347.874 512.924 353.99 515.489C361.784 518.771 370.562 514.527 377.832 510.197C388.16 504.049 398.26 497.555 408.132 490.717C442.832 466.832 475.115 439.386 507.255 412.048C511.072 408.798 515.146 405.098 515.808 400.137C516.289 396.513 514.856 393.155 512.729 390.098C511.241 388.049 509.601 386.115 507.822 384.314C502.422 378.69 497.026 373.059 491.635 367.421C489.069 364.748 486.278 361.936 482.75 360.953C482.469 360.865 482.183 360.794 481.895 360.739C476.485 359.702 471.385 363.262 467.023 366.619C440.089 387.425 413.161 408.227 386.237 429.026C385.114 411.812 387.037 394.845 387.156 377.396" stroke="#171717" stroke-width="3.207" stroke-linecap="round" stroke-linejoin="round"/>
<path d="M438.6 271.3L433.051 272.583" stroke="#171717" stroke-width="3.207" stroke-linecap="round" stroke-linejoin="round"/>
<path d="M238.4 477.309C247.563 468.157 280.226 485.969 311.371 517.114C342.516 548.259 360.328 580.922 351.176 590.085C350.914 590.35 350.628 590.589 350.321 590.801C348.393 592.068 346.099 592.658 343.799 592.48C339.64 592.394 334.358 590.834 328.307 588.022C317.059 582.794 303.182 573.203 289.026 560.534C285.426 557.316 281.798 553.894 278.195 550.291C258.864 530.96 244.666 511.031 238.882 496.512C235.333 487.637 234.927 480.784 238.4 477.309Z" stroke="#171717" stroke-width="3.207" stroke-linecap="round" stroke-linejoin="round"/>
<path d="M238.399 477.309L141.746 557.465C128.937 569.643 143.168 605.385 173.522 637.289C203.876 669.193 238.859 685.198 251.657 673.021L350.322 590.8L351.177 590.084" stroke="#171717" stroke-width="3.207" stroke-linecap="round" stroke-linejoin="round"/>
<path d="M343.8 592.266C345.489 584.098 343.426 575.466 339.491 568.113C335.556 560.76 329.836 554.503 323.881 548.665C300.029 525.328 271.443 507.385 240.058 496.051" stroke="#171717" stroke-width="3.207" stroke-linecap="round" stroke-linejoin="round"/>
<path d="M288.289 561.335C276.304 573.962 264.326 586.592 252.354 599.226C250.879 600.776 249.296 602.797 249.98 604.826C250.339 605.617 250.942 606.271 251.7 606.695C252.458 607.118 253.331 607.287 254.193 607.178C255.909 606.921 257.548 606.29 258.993 605.328C264.82 602.046 270.643 598.764 276.463 595.481C279.018 594.038 282.589 592.723 284.563 594.893C285.096 595.586 285.414 596.421 285.478 597.293C285.543 598.165 285.351 599.037 284.926 599.801C284.055 601.314 282.892 602.64 281.505 603.701C269.937 613.783 258.372 623.865 246.81 633.948C244.575 635.894 242.127 638.513 242.91 641.368C243.744 644.394 247.636 645.303 250.758 644.95C258.595 644.073 265.202 638.92 271.339 633.97C290.317 618.67 309.298 603.37 328.283 588.07" stroke="#171717" stroke-width="3.207" stroke-linecap="round" stroke-linejoin="round"/>
<path d="M680.3 494.651L831.554 629.933C831.554 629.933 838.226 638.486 833.446 645.533C828.666 652.58 812.565 641.256 812.565 641.256L669.265 514.624" stroke="#171717" stroke-width="3.207" stroke-linecap="round" stroke-linejoin="round"/>
<path d="M543.04 371.675L543.115 371.75L594.296 417.5L637.928 456.503" stroke="#171717" stroke-width="3.207" stroke-linecap="round" stroke-linejoin="round"/>
<path d="M485.369 351.97L403.652 279.791L261.742 154.463L255.337 148.807L270.049 127.295L274.518 131.294L432.776 272.895L494.521 328.128" stroke="#171717" stroke-width="3.207" stroke-linecap="round" stroke-linejoin="round"/>
<path d="M621.323 472.252L603.543 456.535L524.029 386.269" stroke="#171717" stroke-width="3.207" stroke-linecap="round" stroke-linejoin="round"/>
<path d="M275.181 130.546C276.158 127.84 276.376 124.918 275.81 122.098C275.245 119.277 273.919 116.665 271.975 114.544C270.03 112.424 267.543 110.876 264.782 110.069C262.021 109.261 259.091 109.225 256.311 109.964C251.2 111.29 246.656 114.936 243.46 119.244C239.695 124.132 237.631 130.117 237.58 136.287C237.606 137.744 237.778 139.194 238.093 140.617C239.037 145.228 241.583 149.356 245.278 152.271C250.153 155.96 256.312 157.542 261.658 154.559" stroke="#171717" stroke-width="3.207" stroke-linecap="round" stroke-linejoin="round"/>
<path d="M256.199 109.515C236.188 90.4681 209.607 79.8652 181.98 79.9098C170.465 79.9848 158.88 81.9728 148.387 86.6888C137.894 91.4048 128.533 98.9628 122.524 108.778C116.344 118.878 114.013 130.749 113.757 142.692C113.677 146.959 113.827 151.228 114.206 155.479C116.868 186.538 129.26 217.149 151.071 239.419C151.12 239.463 151.167 239.509 151.21 239.558" stroke="#171717" stroke-width="3.207" stroke-linecap="round" stroke-linejoin="round"/>
<path d="M151.275 239.227C150.933 224.9 150.591 210.456 153.061 196.343C154.943 185.576 158.578 174.895 164.608 165.843C166.471 163.019 168.582 160.368 170.916 157.92C179.234 149.22 190.364 143.433 202.104 140.728C213.915 138.18 226.131 138.154 237.953 140.653" stroke="#171717" stroke-width="3.207" stroke-linecap="round" stroke-linejoin="round"/>
<path d="M164.522 165.786C165.238 134.876 150.805 173.612 148.656 134.919C142.915 123.008 134.179 145.301 126.888 141.505C124.429 134.94 117.169 137.955 114.304 142.692" stroke="#171717" stroke-width="3.207" stroke-linecap="round" stroke-linejoin="round"/>
<path d="M516.717 259.808C551.861 259.028 587.859 263.732 619.175 279.695C654.379 297.649 681.25 328.556 694.135 365.916C707.02 403.275 704.915 444.175 688.264 480.015" stroke="#171717" stroke-width="3.207" stroke-linecap="round" stroke-linejoin="round"/>
<path d="M603.073 457.07C603.854 460.63 604.634 463.122 605.414 466.682C606.44 471.376 607.306 476.818 604.238 480.517C602.11 483.072 598.689 484.002 595.417 484.74C595.225 484.772 595.032 484.815 594.85 484.858C539.681 496.726 479.95 509.492 424.072 521.509C419.421 522.513 414.795 523.508 410.194 524.492C409.51 512.881 408.815 502.292 408.13 490.717C408.119 490.535 408.109 490.353 408.098 490.172" stroke="#171717" stroke-width="3.207" stroke-linecap="round" stroke-linejoin="round"/>
<path d="M688.254 480.057L688.243 480.046C685.837 478.25 683.503 476.504 681.243 474.807C667.194 464.286 655.711 455.637 647.66 449.371C644.902 447.211 642.539 445.34 640.614 443.771C636.156 440.125 645.014 396.225 617.851 359.499C607.051 344.894 592.212 334.999 575.138 328.792C581.617 358.269 588.089 387.742 594.554 417.212" stroke="#171717" stroke-width="3.207" stroke-linecap="round" stroke-linejoin="round"/>
<path d="M424.126 521.765C429.912 542.58 431.189 564.391 427.872 585.74C424.555 607.089 416.721 627.484 404.893 645.563C393.065 663.642 377.515 678.99 359.282 690.579C341.049 702.169 320.553 709.735 299.162 712.772C288.556 714.28 277.308 714.814 268.242 720.523C259.774 725.858 254.396 735.128 251.83 744.823C251.755 745.058 251.691 745.283 251.638 745.518C249.138 755.451 249.238 765.843 249.489 776.086C249.767 787.612 250.248 799.298 253.851 810.246C256.551 818.457 261.26 826.294 267.868 831.715C270.072 833.543 272.505 835.074 275.106 836.27C286.589 841.52 299.975 839.531 312.27 836.67C371.218 822.916 424.646 791.7 465.572 747.102C506.498 702.504 533.02 646.597 541.67 586.688C542.612 580.262 543.339 573.804 543.851 567.315" stroke="#171717" stroke-width="3.207" stroke-linecap="round" stroke-linejoin="round"/>
<path d="M595.417 484.74C659.033 584.632 727.402 681.274 800.526 774.666C811.838 789.11 823.898 805.49 822.145 823.766C821.868 826.619 821.264 829.432 820.345 832.148C815.053 847.897 799.924 859.733 785.223 868.628C776.114 874.145 765.623 880.143 755.19 882.901C746.626 885.168 738.09 885.253 730.396 881.115C718.977 874.967 709.344 854.91 700.796 837.14C659.184 750.719 595.462 664.02 541.939 586.73" stroke="#171717" stroke-width="3.207" stroke-linecap="round" stroke-linejoin="round"/>
<path d="M250.999 744.6C241.216 744.354 230.631 744.343 222.73 750.128C216.09 754.982 212.68 763.022 209.847 770.742C201.818 792.596 195.991 815.187 190.174 837.736C187.897 846.589 185.684 856.336 189.714 864.536C194.376 874.062 205.614 878.018 215.759 881.087C221.992 882.979 229.198 884.754 234.659 881.205C237.375 879.452 239.192 876.629 240.924 873.892C249.641 860.103 258.358 846.32 267.075 832.542" stroke="#171717" stroke-width="3.207" stroke-linecap="round" stroke-linejoin="round"/>
<path d="M755.322 883.379C759.222 889.452 761.267 896.508 764.41 903.009C767.553 909.51 772.258 915.828 779.11 918.095C785.14 920.095 791.694 918.63 797.863 917.154C816.135 912.78 834.407 908.404 852.679 904.025C863.392 901.47 874.64 898.615 882.626 891.025C889.926 884.075 893.426 874.143 896.686 864.595C898.814 858.372 900.952 851.615 898.931 845.35C896.087 836.529 885.866 832.071 876.596 832.06C867.326 832.049 858.396 835.31 849.247 836.818C840.098 838.326 827.575 838.753 820.903 832.327" stroke="#171717" stroke-width="3.207" stroke-linecap="round" stroke-linejoin="round"/>
<path d="M510.206 334.415C510.281 334.266 510.345 334.112 510.398 333.955C510.398 333.944 510.398 333.944 510.409 333.934C510.462 333.795 510.516 333.656 510.58 333.517" stroke="#171717" stroke-width="3.207" stroke-linecap="round" stroke-linejoin="round"/>
<path d="M483.006 360.118C483.979 357.476 484.967 354.839 485.968 352.206C488.598 345.288 491.314 338.399 494.115 331.539C494.479 330.639 494.863 329.721 495.315 328.823C496.63 326.15 498.373 323.691 501.115 322.739C502.62 322.284 504.228 322.305 505.721 322.798C507.214 323.292 508.518 324.234 509.455 325.497C510.302 326.713 510.833 328.121 511.001 329.593C511.169 331.066 510.968 332.557 510.417 333.933" stroke="#171717" stroke-width="3.207" stroke-linecap="round" stroke-linejoin="round"/>
<path d="M510.8 334.661C513.013 332.287 514.286 329.761 517.055 328.086C518.406 327.189 519.926 326.577 521.521 326.287C523.117 325.996 524.754 326.034 526.335 326.397C529.446 327.284 532.044 330.278 531.788 333.507C531.723 334.5 531.518 335.479 531.179 336.415C530.302 338.778 528.485 340.745 525.331 343.899" stroke="#171717" stroke-width="3.207" stroke-linecap="round" stroke-linejoin="round"/>
<path d="M531.183 336.414C533.428 334.372 536.101 332.875 538.999 333.795C540.734 334.315 542.224 335.442 543.199 336.97C544.653 339.354 544.418 342.47 543.306 345.032C542.051 347.53 540.405 349.811 538.431 351.789C538.709 351.415 538.987 351.041 539.265 350.677" stroke="#171717" stroke-width="3.207" stroke-linecap="round" stroke-linejoin="round"/>
<path d="M543.564 345.085C545.394 344.781 547.27 345.196 548.801 346.241C550.333 347.287 551.402 348.883 551.786 350.698C552.577 354.504 551.262 358.439 549.541 361.935C545.515 370.066 539.311 376.92 531.621 381.735C529.124 383.277 526.519 384.639 523.827 385.809C520.545 387.263 517.155 388.525 513.788 389.786" stroke="#171717" stroke-width="3.207" stroke-linecap="round" stroke-linejoin="round"/>
<path d="M627.611 488.493C627.525 488.568 627.429 488.653 627.344 488.739" stroke="#171717" stroke-width="3.207" stroke-linecap="round" stroke-linejoin="round"/>
<path d="M628.06 488.065L628.049 488.076" stroke="#171717" stroke-width="3.207" stroke-linecap="round" stroke-linejoin="round"/>
<path d="M628.048 488.076C627.909 488.215 627.759 488.354 627.61 488.493" stroke="#171717" stroke-width="3.207" stroke-linecap="round" stroke-linejoin="round"/>
<path d="M647.412 449.682C644.996 451.782 642.112 454.258 639.062 456.899C633.096 462.063 626.478 467.815 621.462 472.399C620.853 472.955 620.254 473.49 619.698 474.013C616.854 476.643 613.818 479.797 613.925 483.657C614.027 485.225 614.611 486.724 615.596 487.948C616.582 489.173 617.921 490.064 619.431 490.5C620.854 490.858 622.344 490.862 623.77 490.512C625.196 490.161 626.514 489.467 627.61 488.49" stroke="#171717" stroke-width="3.207" stroke-linecap="round" stroke-linejoin="round"/>
<path d="M628.488 488.546C627.055 491.446 625.142 493.528 624.543 496.704C624.18 498.287 624.142 499.927 624.432 501.525C624.723 503.123 625.335 504.646 626.232 506C628.156 508.6 631.877 509.977 634.807 508.6C635.715 508.187 636.561 507.648 637.32 507C639.212 505.343 640.42 502.948 642.26 498.9" stroke="#171717" stroke-width="3.207" stroke-linecap="round" stroke-linejoin="round"/>
<path d="M637.319 506.989C636.196 509.822 635.737 512.837 637.608 515.232C638.71 516.672 640.292 517.67 642.066 518.044C644.814 518.568 647.636 517.253 649.646 515.307C651.54 513.253 653.096 510.91 654.254 508.368C654.008 508.768 653.754 509.148 653.506 509.544" stroke="#171717" stroke-width="3.207" stroke-linecap="round" stroke-linejoin="round"/>
<path d="M649.785 515.532C650.143 517.352 651.191 518.963 652.709 520.029C654.227 521.095 656.099 521.533 657.932 521.252C661.781 520.652 664.999 518.034 667.661 515.19C668.003 514.827 668.335 514.452 668.666 514.078C673.644 508.408 677.248 501.666 679.197 494.378C679.454 493.405 679.689 492.432 679.881 491.448C680.984 485.975 681.44 480.391 681.239 474.812V474.726" stroke="#171717" stroke-width="3.207" stroke-linecap="round" stroke-linejoin="round"/>
<path d="M388.509 426.572C378.868 417.899 364.895 419.309 347.409 425.743C305.223 441.264 276.926 473.968 244.993 505.605" stroke="#171717" stroke-width="3.207" stroke-linecap="round" stroke-linejoin="round"/>
<path d="M346.169 563.041C363.31 546.8 376.693 528.836 385.382 506.886" stroke="#171717" stroke-width="3.207" stroke-linecap="round" stroke-linejoin="round"/>
<path d="M91.7994 141.647C91.1738 163.495 96.0659 185.148 106.023 204.605" stroke="#171717" stroke-width="3.207" stroke-linecap="round" stroke-linejoin="round"/>
<path d="M77.1 170.289C75.9067 175.693 76.7725 181.348 79.528 186.148" stroke="#171717" stroke-width="3.207" stroke-linecap="round" stroke-linejoin="round"/>
<path d="M186.57 180.122C187.183 173.736 193.892 168.632 200.21 169.745" stroke="#171717" stroke-width="3.207" stroke-linecap="round" stroke-linejoin="round"/>
<path d="M411.581 155.206C409.931 153.377 408.675 151.229 407.888 148.895C407.1 146.561 406.8 144.091 407.005 141.637" stroke="#171717" stroke-width="3.207" stroke-linecap="round" stroke-linejoin="round"/>
<path d="M300.866 384.649C300.408 363.601 307.141 343.026 319.954 326.321" stroke="#171717" stroke-width="3.207" stroke-linecap="round" stroke-linejoin="round"/>
<path d="M448.542 267.676V260.129" stroke="#171717" stroke-width="3.207" stroke-linecap="round" stroke-linejoin="round"/>
<path d="M458.353 266.167V257.867" stroke="#171717" stroke-width="3.207" stroke-linecap="round" stroke-linejoin="round"/>
<path d="M468.172 264.653C467.603 263.477 467.306 262.188 467.303 260.881C467.3 259.574 467.591 258.284 468.155 257.105" stroke="#171717" stroke-width="3.207" stroke-linecap="round" stroke-linejoin="round"/>
<path d="M477.333 263.912C477.55 261.393 477.766 258.874 477.983 256.356" stroke="#171717" stroke-width="3.207" stroke-linecap="round" stroke-linejoin="round"/>
<path d="M486.276 263.148V255.6" stroke="#171717" stroke-width="3.207" stroke-linecap="round" stroke-linejoin="round"/>
<path d="M494.66 262.386C494.438 259.868 494.216 257.349 493.995 254.831" stroke="#171717" stroke-width="3.207" stroke-linecap="round" stroke-linejoin="round"/>
<path d="M502.881 262.393V255.6" stroke="#171717" stroke-width="3.207" stroke-linecap="round" stroke-linejoin="round"/>
<path d="M509.805 261.625C509.553 259.109 509.302 256.593 509.051 254.078" stroke="#171717" stroke-width="3.207" stroke-linecap="round" stroke-linejoin="round"/>
<path d="M508.463 410.542C499.17 392.9 486.825 377.043 472 363.708" stroke="#171717" stroke-width="3.207" stroke-linecap="round" stroke-linejoin="round"/>
<path d="M500.53 416.151C490.704 399.062 478.87 383.209 465.278 368.931" stroke="#171717" stroke-width="3.207" stroke-linecap="round" stroke-linejoin="round"/>
<path d="M410.276 514.807C474.61 497.645 539.407 482.365 604.669 468.968" stroke="#171717" stroke-width="3.207" stroke-linecap="round" stroke-linejoin="round"/>
<path d="M639.494 433.684C658.984 442.01 677.248 452.953 693.785 466.209" stroke="#171717" stroke-width="3.207" stroke-linecap="round" stroke-linejoin="round"/>
<path d="M639.278 423.74C660.045 429.992 679.571 439.795 696.99 452.715" stroke="#171717" stroke-width="3.207" stroke-linecap="round" stroke-linejoin="round"/>
<path d="M312.449 267.681L324.524 252.586" stroke="#171717" stroke-width="3.207" stroke-linecap="round" stroke-linejoin="round"/>
<path d="M323.342 265.315L314.018 255.038" stroke="#171717" stroke-width="3.207" stroke-linecap="round" stroke-linejoin="round"/>
<path d="M543.192 64.8116L537.438 46.7686" stroke="#171717" stroke-width="3.207" stroke-linecap="round" stroke-linejoin="round"/>
<path d="M531.293 59.3099C537.741 57.9171 543.919 55.4853 549.586 52.1099" stroke="#171717" stroke-width="3.207" stroke-linecap="round" stroke-linejoin="round"/>
<path d="M600.88 123.321C603.084 116.687 605.921 110.28 609.351 104.188" stroke="#171717" stroke-width="3.207" stroke-linecap="round" stroke-linejoin="round"/>
<path d="M594.214 110.658C601.027 113.089 608.121 114.645 615.326 115.29" stroke="#171717" stroke-width="3.207" stroke-linecap="round" stroke-linejoin="round"/>
<path d="M716.431 377.861C717.429 363.202 714.894 348.518 709.038 335.043" stroke="#171717" stroke-width="3.207" stroke-linecap="round" stroke-linejoin="round"/>
<path d="M449.291 787.407C467.273 778.283 482.693 764.815 494.154 748.226" stroke="#171717" stroke-width="3.207" stroke-linecap="round" stroke-linejoin="round"/>
<path d="M697.39 889.025L673.356 845.69" stroke="#171717" stroke-width="3.207" stroke-linecap="round" stroke-linejoin="round"/>
<path d="M832.725 838.287C829.264 840.789 826.391 844.017 824.307 847.746C822.223 851.474 820.979 855.612 820.661 859.872" stroke="#171717" stroke-width="3.207" stroke-linecap="round" stroke-linejoin="round"/>
<path d="M846.304 837.768C843.19 840.6 840.779 844.119 839.262 848.046C837.745 851.972 837.164 856.198 837.564 860.389" stroke="#171717" stroke-width="3.207" stroke-linecap="round" stroke-linejoin="round"/>
<path d="M862.354 834.2C857.823 840.834 855.844 848.882 856.781 856.861" stroke="#171717" stroke-width="3.207" stroke-linecap="round" stroke-linejoin="round"/>
<path d="M262.518 838.964C257.575 836.656 253.3 833.129 250.096 828.714C246.891 824.3 244.862 819.142 244.2 813.728" stroke="#171717" stroke-width="3.207" stroke-linecap="round" stroke-linejoin="round"/>
<path d="M255.678 848.887C251.423 847.063 247.57 844.415 244.344 841.095C241.117 837.775 238.58 833.849 236.878 829.543" stroke="#171717" stroke-width="3.207" stroke-linecap="round" stroke-linejoin="round"/>
<path d="M249.176 858.583C245.122 857.118 241.448 854.762 238.425 851.689C235.402 848.617 233.107 844.905 231.708 840.828" stroke="#171717" stroke-width="3.207" stroke-linecap="round" stroke-linejoin="round"/>
<path d="M144.039 315.383C141.326 319.365 135.781 320.228 130.992 319.701C126.203 319.174 121.443 317.633 116.663 318.237C107.254 319.425 100.584 329.008 99.9537 338.47C99.3237 347.932 103.421 357.079 108.383 365.161C113.345 373.243 119.292 380.793 123.041 389.5C128.217 401.657 128.823 415.275 124.748 427.844C122.016 436.16 116.912 444.094 109.168 448.173C101.424 452.252 90.8097 451.489 85.0457 444.901C79.2817 438.313 81.0257 426.101 89.1397 422.816C95.8147 420.116 103.84 424.229 107.32 430.532C110.8 436.835 110.557 444.586 108.804 451.57C105.404 465.127 96.9187 476.779 88.2527 487.747C79.5867 498.715 70.4117 509.62 65.1997 522.59C59.9877 535.56 59.3997 551.311 67.4517 562.733" stroke="#171717" stroke-width="3.207" stroke-linecap="round" stroke-linejoin="round"/>
<path d="M117.627 583.555C115.502 581.065 113.911 578.166 112.951 575.037C111.991 571.908 111.683 568.615 112.046 565.362C112.409 562.109 113.435 558.966 115.061 556.125C116.687 553.285 118.879 550.808 121.5 548.848" stroke="#171717" stroke-width="3.207" stroke-linecap="round" stroke-linejoin="round"/>
<path d="M831.42 349.645C812.598 360.245 801.344 380.829 795.87 401.723C791.731 417.523 790.545 435.09 798.206 449.513C805.867 463.936 824.67 473.2 839.3 465.942C844.181 463.52 848.365 459.242 849.592 453.928C850.819 448.614 848.492 442.394 843.577 440.048C836.46 436.654 828.223 442.248 823.577 448.623C818.711 455.303 815.512 463.423 815.784 471.681C816.096 481.156 820.863 489.93 826.518 497.539C832.173 505.148 838.835 512.018 843.875 520.047C848.915 528.076 852.284 537.735 850.375 547.021C848.466 556.307 839.975 564.595 830.528 563.832" stroke="#171717" stroke-width="3.207" stroke-linecap="round" stroke-linejoin="round"/>
<path d="M303.224 295.924C300.997 290.913 298.77 285.902 296.542 280.892" stroke="#171717" stroke-width="3.207" stroke-linecap="round" stroke-linejoin="round"/>
<path d="M292.79 292.778L305.385 285.764" stroke="#171717" stroke-width="3.207" stroke-linecap="round" stroke-linejoin="round"/>
<path d="M678.2 420.1L687.725 411.007" stroke="#171717" stroke-width="3.207" stroke-linecap="round" stroke-linejoin="round"/>
<path d="M658.6 394.467L649.04 385.914" stroke="#171717" stroke-width="3.207" stroke-linecap="round" stroke-linejoin="round"/>
<path d="M663.633 360.757C666.261 358.197 668.319 355.111 669.671 351.701" stroke="#171717" stroke-width="3.207" stroke-linecap="round" stroke-linejoin="round"/>
<path d="M631.39 339.676L621.9 332.042" stroke="#171717" stroke-width="3.207" stroke-linecap="round" stroke-linejoin="round"/>
<path d="M601.251 299.378L606.286 290.324" stroke="#171717" stroke-width="3.207" stroke-linecap="round" stroke-linejoin="round"/>
<path d="M570.048 299.374C566.902 296.766 563.327 294.723 559.482 293.336" stroke="#171717" stroke-width="3.207" stroke-linecap="round" stroke-linejoin="round"/>
<path d="M532.313 277.739L536.841 269.186" stroke="#171717" stroke-width="3.207" stroke-linecap="round" stroke-linejoin="round"/>
<path d="M496.591 308.43C494.544 306.018 491.959 304.122 489.044 302.895" stroke="#171717" stroke-width="3.207" stroke-linecap="round" stroke-linejoin="round"/>
<path d="M563.5 373.831L569.54 365.279" stroke="#171717" stroke-width="3.207" stroke-linecap="round" stroke-linejoin="round"/>
<path d="M550.371 455.96L541.315 451.431" stroke="#171717" stroke-width="3.207" stroke-linecap="round" stroke-linejoin="round"/>
<path d="M511.829 445.39L518.239 436.74" stroke="#171717" stroke-width="3.207" stroke-linecap="round" stroke-linejoin="round"/>
<path d="M493.152 476.871L483.089 469.324" stroke="#171717" stroke-width="3.207" stroke-linecap="round" stroke-linejoin="round"/>
<path d="M445.24 485.011L450.253 477.452" stroke="#171717" stroke-width="3.207" stroke-linecap="round" stroke-linejoin="round"/>
<path d="M470.981 420.655L475.009 412.606" stroke="#171717" stroke-width="3.207" stroke-linecap="round" stroke-linejoin="round"/>
<path d="M449.286 408.58L440.731 405.566" stroke="#171717" stroke-width="3.207" stroke-linecap="round" stroke-linejoin="round"/>
<path d="M424.368 457.419L427.668 444.783" stroke="#171717" stroke-width="3.207" stroke-linecap="round" stroke-linejoin="round"/>
<path d="M378.85 467.432C376.165 465.675 373.006 464.781 369.799 464.871" stroke="#171717" stroke-width="3.207" stroke-linecap="round" stroke-linejoin="round"/>
<path d="M358.3 446.322L361.69 438.217" stroke="#171717" stroke-width="3.207" stroke-linecap="round" stroke-linejoin="round"/>
<path d="M373.389 398.865L364.373 394.258" stroke="#171717" stroke-width="3.207" stroke-linecap="round" stroke-linejoin="round"/>
<path d="M357.329 502.668L360 492.014" stroke="#171717" stroke-width="3.207" stroke-linecap="round" stroke-linejoin="round"/>
<path d="M339.041 391.925L343.541 380.34" stroke="#171717" stroke-width="3.207" stroke-linecap="round" stroke-linejoin="round"/>
<path d="M391.939 339.625L383.386 332.078" stroke="#171717" stroke-width="3.207" stroke-linecap="round" stroke-linejoin="round"/>
<path d="M361.247 322.015L367.788 313.462" stroke="#171717" stroke-width="3.207" stroke-linecap="round" stroke-linejoin="round"/>
<path d="M430.5 331.324L422.166 325.476" stroke="#171717" stroke-width="3.207" stroke-linecap="round" stroke-linejoin="round"/>
<path d="M452.33 358.225L444.283 350.674" stroke="#171717" stroke-width="3.207" stroke-linecap="round" stroke-linejoin="round"/>
<path d="M430.126 381.365L433.152 373.821" stroke="#171717" stroke-width="3.207" stroke-linecap="round" stroke-linejoin="round"/>
<path d="M530.3 308.43C527.596 306.629 525.355 304.216 523.759 301.386" stroke="#171717" stroke-width="3.207" stroke-linecap="round" stroke-linejoin="round"/>
<path d="M496.028 284.708C499.463 281.95 502.549 278.783 505.217 275.278" stroke="#171717" stroke-width="3.207" stroke-linecap="round" stroke-linejoin="round"/>
<path d="M398.376 312.382L404.447 303.853" stroke="#171717" stroke-width="3.207" stroke-linecap="round" stroke-linejoin="round"/>
<path d="M509.641 569.28C505.527 568.062 501.174 571.457 499.841 575.536C498.508 579.615 499.415 584.057 500.507 588.206C501.599 592.355 502.886 596.612 502.284 600.859C501.682 605.106 498.539 609.359 494.257 609.619" stroke="white" stroke-width="3.207" stroke-linecap="round" stroke-linejoin="round"/>
<path d="M627.3 591.116C623.452 594.492 624.74 601.067 628.16 604.875C631.58 608.683 636.469 610.788 640.52 613.917C644.571 617.046 647.979 622.168 646.438 627.049" stroke="white" stroke-width="3.207" stroke-linecap="round" stroke-linejoin="round"/>
<path d="M476.039 687.56C473.17 684.702 467.939 686.593 465.704 689.968C463.469 693.343 463.141 697.583 462.062 701.487C460.983 705.391 458.527 709.504 454.531 710.161" stroke="white" stroke-width="3.207" stroke-linecap="round" stroke-linejoin="round"/>
<path d="M394.787 694.532C390.954 691.787 385.427 693.441 381.787 696.432C378.147 699.423 375.566 703.548 371.939 706.561C368.312 709.574 362.817 711.284 358.939 708.597" stroke="white" stroke-width="3.207" stroke-linecap="round" stroke-linejoin="round"/>
<path d="M400.749 777.182C400.264 774.248 395.811 773.85 393.542 775.773C391.273 777.696 390.417 780.76 388.949 783.346C387.481 785.932 384.564 788.316 381.773 787.288" stroke="white" stroke-width="3.207" stroke-linecap="round" stroke-linejoin="round"/>
<path d="M339.541 762.8C337.843 761.276 335.938 760 333.883 759.01C332.851 758.521 331.728 758.254 330.586 758.227C329.444 758.2 328.31 758.413 327.256 758.852C324.446 760.206 323.156 763.407 321.239 765.869C319.148 768.434 316.282 770.253 313.07 771.051C309.859 771.85 306.475 771.585 303.426 770.298" stroke="white" stroke-width="3.207" stroke-linecap="round" stroke-linejoin="round"/>
<path d="M460.808 608.944C458.146 607.899 455.441 610.824 455.043 613.655C454.645 616.486 455.556 619.369 455.243 622.212C454.93 625.055 452.472 628.112 449.725 627.318" stroke="white" stroke-width="3.207" stroke-linecap="round" stroke-linejoin="round"/>
<path d="M627.758 657.451C626.781 658.443 626.048 659.648 625.615 660.971C625.183 662.295 625.063 663.701 625.266 665.079C625.469 666.456 625.989 667.768 626.785 668.911C627.581 670.053 628.631 670.996 629.853 671.664C631.468 672.392 633.13 673.011 634.828 673.518C636.543 674.038 637.989 675.203 638.862 676.768C639.595 678.382 638.985 680.668 637.294 681.201" stroke="white" stroke-width="3.207" stroke-linecap="round" stroke-linejoin="round"/>
<path d="M703.487 685.973C702.233 686.742 701.198 687.82 700.48 689.105C699.762 690.389 699.387 691.836 699.389 693.307C699.391 694.778 699.77 696.224 700.491 697.506C701.212 698.788 702.251 699.864 703.507 700.63C706.783 702.63 711.192 702.33 714.17 704.754C715.087 705.499 715.805 706.46 716.26 707.55C716.715 708.641 716.893 709.827 716.777 711.003C716.662 712.179 716.257 713.309 715.599 714.29C714.941 715.271 714.05 716.075 713.006 716.628" stroke="white" stroke-width="3.207" stroke-linecap="round" stroke-linejoin="round"/>
<path d="M709.452 773.421C708.32 774.315 707.422 775.47 706.835 776.787C706.247 778.105 705.987 779.544 706.077 780.984C706.167 782.423 706.605 783.82 707.352 785.053C708.099 786.287 709.135 787.321 710.369 788.067C712.549 789.385 715.169 789.708 717.607 790.434C720.045 791.16 722.576 792.539 723.415 794.945C723.72 796.081 723.721 797.277 723.42 798.414C723.118 799.551 722.524 800.589 721.696 801.425C720.021 803.074 718.066 804.413 715.923 805.378" stroke="white" stroke-width="3.207" stroke-linecap="round" stroke-linejoin="round"/>
<path d="M780.216 789.856C778.454 792.225 777.317 795 776.91 797.924C776.725 799.387 776.919 800.873 777.474 802.239C778.029 803.605 778.927 804.805 780.08 805.724C782.615 807.514 786.229 807.448 788.471 809.593C789.224 810.314 789.757 811.233 790.008 812.244C790.259 813.256 790.218 814.317 789.891 815.307C789.563 816.296 788.961 817.172 788.155 817.833C787.35 818.494 786.373 818.913 785.339 819.041" stroke="white" stroke-width="3.207" stroke-linecap="round" stroke-linejoin="round"/>
<path d="M555.916 521.593C552.804 522.251 551.483 526.34 552.616 529.312C553.749 532.284 556.5 534.294 559.194 535.986C561.888 537.678 564.773 539.324 566.5 541.994C568.227 544.664 568.291 548.737 565.717 550.605" stroke="white" stroke-width="3.207" stroke-linecap="round" stroke-linejoin="round"/>
<path d="M472.082 529.876C469.928 528.519 466.897 530.243 466.014 532.63C465.131 535.017 465.767 537.676 466.524 540.107C467.281 542.538 468.165 545.058 467.747 547.569C467.329 550.08 465.047 552.495 462.547 552.03" stroke="white" stroke-width="3.207" stroke-linecap="round" stroke-linejoin="round"/>
<path d="M613.593 63.4908L615.636 74.0338C615.697 74.352 615.66 74.6815 615.528 74.9778C615.397 75.2742 615.178 75.5232 614.901 75.6913C614.624 75.8594 614.302 75.9385 613.978 75.9181C613.655 75.8976 613.345 75.7785 613.092 75.5768L604.685 68.8998C604.439 68.7047 604.142 68.5868 603.829 68.5608C603.517 68.5348 603.204 68.602 602.93 68.7538L593.535 73.9538C593.251 74.111 592.926 74.1775 592.604 74.1443C592.281 74.1111 591.977 73.9798 591.731 73.7682C591.486 73.5565 591.311 73.2747 591.23 72.9606C591.15 72.6465 591.168 72.3154 591.282 72.0118L595.039 61.9518C595.149 61.6585 595.169 61.3392 595.098 61.0342C595.027 60.7292 594.867 60.4521 594.639 60.2378L586.789 52.9098C586.551 52.6887 586.388 52.4002 586.32 52.0832C586.251 51.7662 586.282 51.4359 586.408 51.1369C586.533 50.8379 586.747 50.5846 587.021 50.4111C587.295 50.2376 587.616 50.1524 587.94 50.1668L598.669 50.6318C598.981 50.6442 599.29 50.5642 599.556 50.4018C599.823 50.2394 600.036 50.0018 600.169 49.7188L604.713 39.9888C604.85 39.6951 605.074 39.4506 605.354 39.288C605.635 39.1255 605.958 39.0528 606.281 39.0797C606.604 39.1066 606.911 39.2318 607.161 39.4385C607.41 39.6452 607.591 39.9235 607.678 40.2358L610.551 50.5828C610.635 50.8848 610.806 51.1551 611.043 51.3598C611.281 51.5645 611.574 51.6942 611.885 51.7328L622.543 53.0478C622.865 53.0865 623.168 53.2236 623.411 53.4403C623.653 53.657 623.823 53.9429 623.897 54.2594C623.972 54.5758 623.947 54.9075 623.827 55.2095C623.706 55.5115 623.496 55.7692 623.225 55.9478L614.272 61.8778C614.012 62.0499 613.809 62.2948 613.689 62.5817C613.568 62.8687 613.534 63.1849 613.593 63.4908Z" fill="#171717"/>
<g opacity="0.1">
<path d="M417.019 117.661C417.095 120.568 417.676 123.44 418.736 126.147C419.127 127.223 419.536 128.293 419.942 129.364C420.173 129.979 421.319 132.342 421.328 132.456C421.797 138.639 427.541 143.106 433.601 140.556C434.925 139.987 436.091 139.104 436.998 137.984C437.905 136.864 438.525 135.54 438.806 134.126C439.086 132.712 439.019 131.251 438.609 129.87C438.199 128.488 437.458 127.227 436.452 126.195C435.894 125.172 435.414 124.109 435.016 123.013C434.507 121.986 434.009 120.953 433.489 119.932C432.256 117.319 430.583 114.938 428.542 112.892C424.392 108.92 416.95 111.699 417.019 117.665V117.661Z" fill="#171717"/>
</g>
<g opacity="0.1">
<path d="M445.412 154.236C437.453 159.251 437.525 172.936 437.641 181.19C437.8 192.502 439.821 203.728 442.201 214.755C444.316 224.555 446.007 234.012 446.04 244.068C446.152 247.867 445.45 251.646 443.981 255.151C442.027 259.496 438.001 262.344 436.745 266.964C435.104 272.999 440.613 277.673 446.317 276.536C455.733 274.657 460.905 260.672 463.091 252.504C466.062 241.404 465.08 230.804 462.93 219.628C460.788 208.494 458.357 197.515 456.765 186.277C455.927 180.361 455.507 174.346 454.44 168.469C453.599 163.838 452.24 157.657 448.365 154.617C447.976 154.249 447.481 154.015 446.951 153.946C446.42 153.878 445.881 153.979 445.412 154.236V154.236Z" fill="#171717"/>
</g>
<g opacity="0.1">
<path d="M403.652 279.056C395.275 278.464 387.152 282.796 380.025 286.935C373.01 291.088 366.507 296.05 360.649 301.719C347.883 313.919 338.703 328.892 332.307 345.271C318.063 381.745 320.939 422.756 329.747 460.145C334.21 479.089 338.811 501.589 354.147 515.004C357.862 518.255 362.936 519.216 367.356 516.704C394.074 501.743 419.762 485.012 444.248 466.623C468.719 448.032 492.848 427.983 513.748 405.378C522.588 395.813 508.906 382.04 499.429 391.059C477.838 411.605 456.192 431.735 432.278 449.612C408.298 467.7 382.911 483.84 356.358 497.88L369.567 499.58C358.825 489.53 355.852 473.6 352.423 459.9C348.058 442.464 344.766 424.69 344.143 406.7C343.085 376.127 349.743 343.525 369.792 319.518C374.794 313.403 380.567 307.963 386.969 303.334C393.858 298.467 401.835 295.456 408.16 289.942C412.647 286.03 408.732 279.418 403.652 279.059V279.056Z" fill="#171717"/>
</g>
<g opacity="0.1">
<path d="M387.074 376.3C383.25 381.732 383.407 389.58 383.001 395.954C382.573 402.674 381.841 409.495 381.983 416.23C382.229 427.914 398.398 427.288 399.702 416.23C400.491 409.541 400.424 402.683 400.648 395.954C400.863 389.477 401.487 382.118 398.164 376.3C395.614 371.834 389.764 372.485 387.074 376.3V376.3Z" fill="#171717"/>
</g>
<g opacity="0.1">
<path d="M411.541 486.214C402.884 492.724 406.656 506.927 407.412 516.36C407.834 521.635 411.612 526.16 417.212 526.16C422.07 526.16 427.577 521.66 427.012 516.36C426.418 510.829 425.952 505.26 425.128 499.76C424.368 494.685 423.409 488.683 418.315 486.212C416.315 485.24 413.508 484.738 411.548 486.212L411.541 486.214Z" fill="#171717"/>
</g>
<g opacity="0.1">
<path d="M232.081 483.871C226.523 484.161 223.148 487.248 218.928 490.535C215.244 493.403 211.628 496.322 208.064 499.342C200.208 506.003 192.357 512.669 184.51 519.342C169.099 532.533 153.716 545.72 137.963 558.503C133.537 562.095 134.229 569.684 137.963 573.418C139.961 575.357 142.637 576.441 145.421 576.441C148.205 576.441 150.88 575.357 152.879 573.418C167.264 559.672 181.994 546.334 196.736 532.973C204.106 526.295 211.451 519.589 218.77 512.856C222.198 509.72 225.59 506.576 228.884 503.299C232.523 499.676 236.672 496.472 237.64 491.168C238.273 487.703 236.111 483.659 232.081 483.868V483.871Z" fill="#171717"/>
</g>
</g>
</g>
<defs>
<clipPath id="clip0_162_2211">
<rect width="960" height="960" fill="white"/>
</clipPath>
<clipPath id="clip1_162_2211">
<rect width="843" height="882" fill="white" transform="translate(59 39)"/>
</clipPath>
</defs>
</svg>
